<?xml version="1.0" encoding="UTF-8" standalone="no"?>
<svg
   width="742.11875px"
   height="171.2px"
   viewBox="-121.05937499999999 -10.599999999999994 742.11875 171.2"
   style="background: none;"
   preserveAspectRatio="xMidYMid"
   version="1.1"
   id="svg70"
   sodipodi:docname="love.svg"
   inkscape:version="1.1.2 (b8e25be833, 2022-02-05)"
   xmlns:inkscape="http://www.inkscape.org/namespaces/inkscape"
   xmlns:sodipodi="http://sodipodi.sourceforge.net/DTD/sodipodi-0.dtd"
   xmlns:xlink="http://www.w3.org/1999/xlink"
   xmlns="http://www.w3.org/2000/svg"
   xmlns:svg="http://www.w3.org/2000/svg">
  <sodipodi:namedview
     id="namedview72"
     pagecolor="#505050"
     bordercolor="#ffffff"
     borderopacity="1"
     inkscape:pageshadow="0"
     inkscape:pageopacity="0"
     inkscape:pagecheckerboard="1"
     showgrid="false"
     inkscape:snap-page="true"
     inkscape:zoom="1.4404702"
     inkscape:cx="141.96753"
     inkscape:cy="106.21532"
     inkscape:window-width="1366"
     inkscape:window-height="705"
     inkscape:window-x="-8"
     inkscape:window-y="-8"
     inkscape:window-maximized="1"
     inkscape:current-layer="svg70" />
  <defs
     id="defs54">
    <linearGradient
       inkscape:collect="always"
       id="linearGradient1459">
      <stop
         style="stop-color:#ff1493;stop-opacity:1;"
         offset="0"
         id="stop1455" />
      <stop
         style="stop-color:#8b008b;stop-opacity:1"
         offset="1"
         id="stop1457" />
    </linearGradient>
    <linearGradient
       id="editing-shiny-gradient"
       x1="11.069075"
       x2="212.71554"
       y1="-89.128239"
       y2="0.65055092"
       gradientUnits="userSpaceOnUse"
       gradientTransform="scale(2.3829163,0.41965385)">
      <stop
         offset="0.0"
         stop-color="#ffb200"
         id="stop2" />
      <stop
         offset="0.5"
         stop-color="#e10057"
         id="stop4" />
      <stop
         offset="1.0"
         stop-color="#5a1a80"
         id="stop6" />
    </linearGradient>
    <linearGradient
       id="editing-shiny-gradient2"
       x1="1.52754"
       x2="1.52754"
       y1="-154.60361"
       y2="66.125927"
       gradientTransform="scale(2.3829163,0.41965385)"
       gradientUnits="userSpaceOnUse">
      <stop
         offset="0.2"
         stop-color="#fff"
         stop-opacity="0.8"
         id="stop9" />
      <stop
         offset="0.8"
         stop-color="#fff"
         stop-opacity="0"
         id="stop11" />
    </linearGradient>
    <filter
       id="editing-shiny2"
       x="0"
       y="0"
       width="1"
       height="1">
      <feMorphology
         operator="erode"
         radius="2"
         id="feMorphology14" />
    </filter>
    <filter
       id="editing-shiny"
       x="-0.018251645"
       y="-0.10363813"
       width="1.0365033"
       height="1.3260283">
      <feFlood
         flood-color="#fff"
         result="flood"
         id="feFlood17" />
      <feConvolveMatrix
         in="SourceGraphic"
         result="conv"
         order="8,8"
         divisor="1"
         kernelMatrix="0 0 0 0 0 0 0 0 0 0 0 1 1 0 0 0 0 0 0 1 1 0 0 0 0 0 1 0 0 1 0 0 0 0 1 0 0 1 0 0 0 1 0 0 0 0 1 0 0 1 1 0 0 1 1 0 0 0 0 1 1 0 0 0 "
         id="feConvolveMatrix19" />
      <feOffset
         dx="0"
         dy="4"
         in="conv"
         result="offset"
         id="feOffset21" />
      <feComposite
         operator="in"
         in="flood"
         in2="offset"
         result="comp"
         id="feComposite23" />
      <feGaussianBlur
         in="offset"
         stdDeviation="3"
         result="shadow"
         id="feGaussianBlur25" />
      <feColorMatrix
         in="shadow"
         type="matrix"
         values="0.7 0 0 0 0  0 0.7 0 0 0  0 0 0.7 0 0  0 0 0 0.3 0"
         result="dark-shadow"
         id="feColorMatrix27" />
      <feOffset
         dx="0"
         dy="4"
         in="dark-shadow"
         result="offset-shadow"
         id="feOffset29" />
      <feOffset
         dx="0"
         dy="2"
         in="conv"
         result="offset-2"
         id="feOffset31" />
      <feComposite
         operator="out"
         in="offset"
         in2="offset-2"
         result="edge-diff"
         id="feComposite33" />
      <feGaussianBlur
         in="edge-diff"
         stdDeviation="1"
         result="edge-blur"
         id="feGaussianBlur35" />
      <feColorMatrix
         in="edge-blur"
         result="edge-shadow"
         type="matrix"
         values="0 0 0 0 0  0 0 0 0 0  0 0 0 0 0  0 0 0 0.5 0"
         id="feColorMatrix37" />
      <feComposite
         operator="in"
         in="edge-shadow"
         in2="offset"
         result="edge-shadow-in"
         id="feComposite39" />
      <feOffset
         dx="0"
         dy="1"
         in="edge-shadow-in"
         result="edge-shadow-final"
         id="feOffset41" />
      <feMerge
         result="out"
         id="feMerge51">
        <feMergeNode
           in="offset-shadow"
           id="feMergeNode43" />
        <feMergeNode
           in="comp"
           id="feMergeNode45" />
        <feMergeNode
           in="edge-shadow-final"
           id="feMergeNode47" />
        <feMergeNode
           in="SourceGraphic"
           id="feMergeNode49" />
      </feMerge>
    </filter>
    <linearGradient
       inkscape:collect="always"
       xlink:href="#linearGradient1459"
       id="linearGradient1461"
       x1="211.40164"
       y1="99.780624"
       x2="219.17657"
       y2="-91.823479"
       gradientUnits="userSpaceOnUse"
       gradientTransform="translate(2.0889844e-5)" />
  </defs>
  <path
     id="rect911"
     style="fill:url(#linearGradient1461);stroke:#800080;stroke-width:1.527"
     d="m -122.44779,-10.6 h 743.5072 V 98.392181 c 0,0 -124.32307,-15.83475 -185.8768,-22.909186 C 370.32864,68.02926 306.40522,31.053059 244.44629,31.053059 c -61.95894,0 -119.3366,36.970999 -181.01728,44.429936 -61.5108096,7.438395 -185.8768,22.909186 -185.8768,22.909186 z"
     sodipodi:nodetypes="cccssscc"
     inkscape:export-filename="A:\code\githubparticipation\ngdream\banner-bottom.png"
     inkscape:export-xdpi="232.44"
     inkscape:export-ydpi="232.44" />
  <g
     filter="url(#editing-shiny)"
     id="g60"
     transform="translate(1.3884355,140.9262)">
    <g
       transform="translate(-16.63001,121.315)"
       id="g58">
      <path
         d="m 17.29,-40.31 v 0 0 q 0,28.21 1.27,36.94 v 0 0 q 0,2.19 -4.18,3.6 v 0 0 Q 10.19,1.64 7.46,1.64 v 0 0 q -2.73,0 -2.73,-0.82 v 0 0 Q 4.73,0.27 5,-0.55 v 0 0 Q 6.73,-4.37 6.73,-31.3 v 0 0 q 0,-25.48 -2.18,-28.3 v 0 l -0.36,-0.55 v 0 q -0.55,-0.46 -0.55,-1.14 v 0 0 q 0,-0.68 1,-1.14 v 0 0 q 1.37,-0.81 4.87,-1.63 v 0 0 q 3.5,-0.82 6.32,-0.82 v 0 0 q 2.83,0 2.83,1.27 v 0 0.27 0 q -1.1,9.47 -1.37,23.03 z m 36.4,-11.74 v 0 l -0.55,33.39 v 0 q 0,15.66 1,18.75 v 0 0 q 0.28,0.55 0.28,1.09 v 0 0 q 0,1.09 -2.64,1.09 v 0 0 q -2.64,0 -5.87,-1.31 v 0 0 q -3.23,-1.32 -3.23,-3.42 v 0 0 Q 44.5,-15.2 44.5,-36.49 v 0 l -0.37,-13.92 v 0 q -0.18,-2.55 -1.04,-4.37 v 0 0 q -0.87,-1.82 -1.69,-2.37 v 0 l -0.72,-0.45 v 0 q -0.64,-0.37 -0.64,-0.82 v 0 0 q 0,-1.28 3.96,-3.14 v 0 0 q 3.96,-1.87 7.69,-1.87 v 0 0 q 1.45,0 1.64,1 v 0 0 q 0.36,2.37 0.36,10.38 z m 15.11,17.74 v 0 0 q -2.37,0.09 -3.42,0.14 v 0 0 q -1.04,0.04 -1.04,-0.5 v 0 0 q 0,-0.55 0.54,-1.09 v 0 0 q 5.83,-5.37 19.66,-5.37 v 0 0 q 4.73,0 7.46,0.82 v 0 l 0.91,0.27 v 0 q 1.09,0.45 1.09,1 v 0 0 q 0,0.46 -0.63,0.73 v 0 0 q -2.46,0.73 -4.74,2.32 v 0 0 q -2.27,1.59 -2.27,2.23 v 0 l 0.55,0.64 v 0 q 2.91,1.63 4.5,5.18 v 0 0 q 1.59,3.55 1.77,6.28 v 0 l 0.19,2.82 v 0 q 0,9.01 -5.01,14.84 v 0 0 q -5,5.82 -13.65,5.82 v 0 0 q -4.37,0 -7.55,-1.55 v 0 0 q -3.19,-1.54 -4.69,-3.5 v 0 0 q -1.5,-1.96 -2.41,-4.41 v 0 0 q -1.09,-3.37 -1.09,-6.97 v 0 0 q 0,-3.59 1.23,-7.23 v 0 0 q 1.22,-3.64 2.82,-5.37 v 0 0 q 1.59,-1.73 3.59,-2.82 v 0 0 q 2.55,-1.36 4.1,-1.36 v 0 0 q 1.54,0 1.54,0.63 v 0 l -0.54,0.91 v 0 q -2,2.37 -2.87,6.19 v 0 0 q -0.86,3.82 -0.86,6.78 v 0 0 q 0,2.96 0.72,5.87 v 0 0 q 0.73,2.91 1.64,4.32 v 0 0 q 0.91,1.41 2.1,2.14 v 0 0 q 1.72,1.09 3.64,1.09 v 0 0 q 1.91,0 3.73,-1.5 v 0 0 q 1.82,-1.5 2.64,-3.96 v 0 0 q 1.63,-4.55 1.63,-9.37 v 0 0 q 0,-7.64 -3.86,-11.83 v 0 0 q -3.87,-4.19 -11.42,-4.19 z m 49.82,-5 v 0 0 q 3.87,-1.91 7.69,-1.91 v 0 0 q 3.82,0 3.82,7.91 v 0 0 q 0,5.83 -2.14,11.83 v 0 0 q -2.14,6.01 -5.32,10.56 v 0 0 q -6.55,9.56 -11.83,12.74 v 0 0 q -1.28,0.73 -1.91,0.73 v 0 0 q -0.64,0 -1.32,-1.37 v 0 0 q -0.69,-1.36 -2.1,-6 v 0 0 q -1.41,-4.64 -2.32,-8.28 v 0 l -0.81,-3.74 v 0 q -1.83,-8 -3.55,-12.78 v 0 0 q -1.73,-4.78 -2.55,-5.51 v 0 l -0.91,-0.82 v 0 q -0.91,-0.45 -0.91,-1.09 v 0 l 0.45,-0.82 v 0 q 1.19,-1.09 3.96,-2.23 v 0 0 q 2.78,-1.13 6.14,-1.13 v 0 0 q 1.55,0 1.91,1.73 v 0 0 q 1.37,4.18 2.37,9.82 v 0 0 q 1,5.65 2.69,12.74 v 0 0 q 1.68,7.1 2.77,7.19 v 0 0 q 0.55,0 1.23,-0.82 v 0 0 q 0.68,-0.82 1.64,-2.18 v 0 0 q 0.95,-1.37 2.36,-5.28 v 0 0 q 1.41,-3.91 1.41,-6.69 v 0 0 q 0,-2.77 -0.22,-4.27 v 0 0 q -0.23,-1.5 -1.6,-3.51 v 0 0 q -1.36,-2 -3.09,-2.32 v 0 0 q -1.73,-0.32 -1.73,-1.14 v 0 0 q 0,-1.45 3.87,-3.36 z m 23.34,16.2 v 0 l 0.09,2.27 v 0 q 0,0.55 0.73,0.55 v 0 0 q 2.91,-0.28 5.09,-1.5 v 0 0 q 2.19,-1.23 3.28,-2.78 v 0 0 q 2.18,-3.37 2.37,-5.82 v 0 l 0.09,-1.1 v 0 q 0,-4.91 -3.92,-4.91 v 0 0 q -2.91,0 -4.73,2.55 v 0 0 q -3,4 -3,10.74 z m 19.84,12.1 v 0 0 q 0,3.46 -1.41,6.05 v 0 0 q -1.41,2.59 -3.19,3.82 v 0 0 q -1.77,1.23 -4.14,1.96 v 0 0 q -3,0.91 -5.73,0.91 v 0 0 q -7.65,0 -11.29,-5.73 v 0 0 q -3.64,-5.74 -3.64,-14.61 v 0 0 q 0,-8.87 4.51,-15.79 v 0 0 q 4.5,-6.91 13.51,-6.91 v 0 0 q 8.19,0 11.1,5.73 v 0 0 q 1.19,2.18 1.19,4.14 v 0 0 q 0,1.96 -0.18,3.09 v 0 0 q -0.19,1.14 -1.28,3.42 v 0 0 q -1.09,2.27 -2.91,4.09 v 0 0 q -1.82,1.82 -5.73,3.46 v 0 0 q -3.92,1.64 -9.19,2.18 v 0 0 q -0.73,0 -0.73,0.64 v 0 0 q 0,0.82 0.59,2.41 v 0 0 q 0.59,1.59 1.32,2.69 v 0 0 q 2,2.54 5.91,2.54 v 0 0 q 3.92,0 6.65,-2.54 v 0 0 q 1.45,-1.37 2.36,-3.37 v 0 0 q 0.37,-0.73 0.96,-0.73 v 0 0 q 0.59,0 0.95,1 v 0 0 q 0.37,1 0.37,1.55 z m 30.3,-23.3 v 0 0 q -2.37,0.09 -3.41,0.14 v 0 0 q -1.05,0.04 -1.05,-0.5 v 0 0 q 0,-0.55 0.55,-1.09 v 0 0 q 5.82,-5.37 19.65,-5.37 v 0 0 q 4.74,0 7.47,0.82 v 0 l 0.91,0.27 v 0 q 1.09,0.45 1.09,1 v 0 0 q 0,0.46 -0.64,0.73 v 0 0 q -2.46,0.73 -4.73,2.32 v 0 0 q -2.28,1.59 -2.28,2.23 v 0 l 0.55,0.64 v 0 q 2.91,1.63 4.5,5.18 v 0 0 q 1.6,3.55 1.78,6.28 v 0 l 0.18,2.82 v 0 q 0,9.01 -5,14.84 v 0 0 q -5.01,5.82 -13.65,5.82 v 0 0 q -4.37,0 -7.56,-1.55 v 0 0 q -3.18,-1.54 -4.68,-3.5 v 0 0 q -1.51,-1.96 -2.42,-4.41 v 0 0 q -1.09,-3.37 -1.09,-6.97 v 0 0 q 0,-3.59 1.23,-7.23 v 0 0 q 1.23,-3.64 2.82,-5.37 v 0 0 q 1.59,-1.73 3.6,-2.82 v 0 0 q 2.54,-1.36 4.09,-1.36 v 0 0 q 1.55,0 1.55,0.63 v 0 l -0.55,0.91 v 0 q -2,2.37 -2.86,6.19 v 0 0 q -0.87,3.82 -0.87,6.78 v 0 0 q 0,2.96 0.73,5.87 v 0 0 q 0.73,2.91 1.64,4.32 v 0 0 q 0.91,1.41 2.09,2.14 v 0 0 q 1.73,1.09 3.64,1.09 v 0 0 q 1.91,0 3.73,-1.5 v 0 0 q 1.82,-1.5 2.64,-3.96 v 0 0 q 1.64,-4.55 1.64,-9.37 v 0 0 q 0,-7.64 -3.87,-11.83 v 0 0 q -3.87,-4.19 -11.42,-4.19 z m 29.12,20.39 v 0 0 q 0.18,-9.19 0.18,-15.11 v 0 0 q 0,-5.91 -0.82,-11.28 v 0 0 q 0,-0.91 1.82,-0.91 v 0 0 q 1.82,0 3.14,0.45 v 0 0 q 1.32,0.46 1.87,1 v 0 0 q 1.45,1.46 1.68,1.46 v 0 0 q 0.23,0 1.41,-0.82 v 0 0 q 3.55,-2.28 7.87,-2.28 v 0 0 q 4.33,0 7.56,2.19 v 0 0 q 3.23,2.18 4.59,5.73 v 0 0 q 2.46,6.1 2.46,12.92 v 0 0 q 0,6.74 -2.46,13.47 v 0 0 q -1.36,3.64 -4,5.96 v 0 0 q -2.64,2.32 -6.19,2.32 v 0 0 q -7.01,0 -7.01,-8.1 v 0 0 q 0,-2.18 0.91,-2.18 v 0 0 q 0.19,0 1.05,0.41 v 0 0 q 0.86,0.41 1.68,0.41 v 0 0 q 6.46,0 6.46,-13.7 v 0 0 q 0,-13.69 -6.91,-13.69 v 0 0 q -1.91,0 -3.23,0.86 v 0 0 q -1.32,0.87 -1.69,1.69 v 0 l -0.36,0.91 v 0 q -1.27,8.19 -1.27,31.57 v 0 0 q 0,10.56 0.41,15.15 v 0 0 q 0.41,4.6 0.41,5.51 v 0 0 q 0,0.91 -0.55,1.64 v 0 0 q -1.82,2.36 -4.91,4.23 v 0 0 q -3.1,1.86 -5.46,1.86 v 0 0 q -0.91,0 -0.91,-1.18 v 0 0 q 1.45,-9.19 2.27,-40.49 z m 44.86,-9.19 v 0 l 0.09,2.27 v 0 q 0,0.55 0.73,0.55 v 0 0 q 2.91,-0.28 5.1,-1.5 v 0 0 q 2.18,-1.23 3.27,-2.78 v 0 0 q 2.19,-3.37 2.37,-5.82 v 0 l 0.09,-1.1 v 0 q 0,-4.91 -3.91,-4.91 v 0 0 q -2.91,0 -4.73,2.55 v 0 0 q -3.01,4 -3.01,10.74 z m 19.84,12.1 v 0 0 q 0,3.46 -1.41,6.05 v 0 0 q -1.41,2.59 -3.18,3.82 v 0 0 q -1.78,1.23 -4.14,1.96 v 0 0 q -3.01,0.91 -5.74,0.91 v 0 0 q -7.64,0 -11.28,-5.73 v 0 0 q -3.64,-5.74 -3.64,-14.61 v 0 0 q 0,-8.87 4.5,-15.79 v 0 0 q 4.51,-6.91 13.52,-6.91 v 0 0 q 8.19,0 11.1,5.73 v 0 0 q 1.18,2.18 1.18,4.14 v 0 0 q 0,1.96 -0.18,3.09 v 0 0 q -0.18,1.14 -1.27,3.42 v 0 0 q -1.1,2.27 -2.92,4.09 v 0 0 q -1.82,1.82 -5.73,3.46 v 0 0 q -3.91,1.64 -9.19,2.18 v 0 0 q -0.73,0 -0.73,0.64 v 0 0 q 0,0.82 0.59,2.41 v 0 0 q 0.59,1.59 1.32,2.69 v 0 0 q 2,2.54 5.92,2.54 v 0 0 q 3.91,0 6.64,-2.54 v 0 0 q 1.46,-1.37 2.37,-3.37 v 0 0 q 0.36,-0.73 0.95,-0.73 v 0 0 q 0.59,0 0.96,1 v 0 0 q 0.36,1 0.36,1.55 z m 5.01,11.65 v 0 0 q 1.63,-9.83 1.63,-23.57 v 0 0 q 0,-13.74 -0.81,-17.84 v 0 0 q 0,-1.18 2.73,-1.18 v 0 0 q 4.18,0 5.55,3.18 v 0 0 q 0.09,0.28 0.45,0.28 v 0 0 q 0.37,0 0.55,-0.18 v 0 0 q 2.82,-2.92 8.73,-2.92 v 0 0 q 5.92,0 9.38,3.01 v 0 0 q 3.45,3 3.45,8.73 v 0 0 q 0,3.46 -0.59,9.83 v 0 0 q -0.59,6.37 -0.59,9.46 v 0 0 q 0,7.37 2.46,10.65 v 0 0 q 0.36,0.46 0.36,0.91 v 0 0 q 0,1.18 -2.55,1.18 v 0 0 q -11.28,0 -11.28,-10.01 v 0 0 q 0,-3.82 1.73,-10.64 v 0 0 q 1.73,-6.83 1.73,-10.38 v 0 0 q 0,-7.28 -6.01,-7.28 v 0 0 q -2.91,0 -4.41,1.73 v 0 0 q -1.5,1.73 -1.68,3.96 v 0 0 q -0.19,2.23 -0.19,8.42 v 0 0 q 0,9.46 0.64,16.47 v 0 l 0.18,2 v 0 q 0,2.55 -3.32,3.96 v 0 0 q -3.32,1.41 -5.73,1.41 v 0 0 q -2.41,0 -2.41,-1.18 z m 63.97,-13.11 v 0 0 q 0,3.92 -1.5,6.83 v 0 0 q -1.5,2.91 -3.41,4.28 v 0 0 Q 348.07,0 345.44,0.82 v 0 0 q -3.46,1.09 -6.28,1.09 v 0 0 q -5.92,0 -9.83,-2.32 v 0 0 q -3.91,-2.32 -3.91,-7.42 v 0 0 q 0,-3 1.63,-4.91 v 0 0 q 2.55,-2.82 6.1,-2.82 v 0 0 q 1.09,0 1.09,1 v 0 0 q 0,0.09 -0.41,1.41 v 0 0 q -0.41,1.32 -0.41,3.32 v 0 0 q 0,2 1.6,3.55 v 0 0 q 1.59,1.55 3.86,1.55 v 0 0 q 2.28,0 3.64,-0.78 v 0 0 q 1.37,-0.77 1.91,-1.95 v 0 0 q 0.82,-1.64 0.82,-3.1 v 0 0 q 0,-2.64 -2.64,-4.55 v 0 0 q -2.63,-1.91 -5.82,-3 v 0 0 q -3.18,-1.09 -5.82,-3.64 v 0 0 q -2.64,-2.55 -2.64,-6.37 v 0 0 q 0,-6.55 4.14,-9.83 v 0 0 q 4.14,-3.27 11.24,-3.27 v 0 0 q 3.09,0 6.5,0.86 v 0 0 q 3.42,0.87 3.42,2.91 v 0 0 q 0,2.05 -0.69,3.78 v 0 0 q -0.68,1.73 -1.68,1.73 v 0 0 q -0.55,0 -0.73,-0.41 v 0 0 q -0.18,-0.41 -0.64,-0.96 v 0 0 q -0.45,-0.54 -2.18,-1.41 v 0 0 q -1.73,-0.86 -2.96,-0.86 v 0 0 q -1.23,0 -1.63,0.04 v 0 0 q -0.41,0.05 -1.42,0.28 v 0 0 q -1,0.23 -1.82,0.68 v 0 0 q -2.09,1.18 -2.09,3.46 v 0 0 q 0,1.45 0.64,2.14 v 0 0 q 0.64,0.68 1,1.04 v 0 0 q 0.36,0.37 1.27,0.87 v 0 0 q 0.91,0.5 1.28,0.68 v 0 0 q 0.36,0.18 1.64,0.77 v 0 0 q 1.27,0.6 1.63,0.78 v 0 0 q 9.65,4.55 9.65,12.37 z m 12.56,-21.84 v 0 0 q -2.37,0.09 -3.41,0.14 v 0 0 q -1.05,0.04 -1.05,-0.5 v 0 0 q 0,-0.55 0.54,-1.09 v 0 0 q 5.83,-5.37 19.66,-5.37 v 0 0 q 4.73,0 7.46,0.82 v 0 l 0.91,0.27 v 0 q 1.09,0.45 1.09,1 v 0 0 q 0,0.46 -0.63,0.73 v 0 0 q -2.46,0.73 -4.73,2.32 v 0 0 q -2.28,1.59 -2.28,2.23 v 0 l 0.55,0.64 v 0 q 2.91,1.63 4.5,5.18 v 0 0 q 1.59,3.55 1.78,6.28 v 0 l 0.18,2.82 v 0 q 0,9.01 -5.01,14.84 v 0 0 q -5,5.82 -13.65,5.82 v 0 0 q -4.37,0 -7.55,-1.55 v 0 0 q -3.19,-1.54 -4.69,-3.5 v 0 0 q -1.5,-1.96 -2.41,-4.41 v 0 0 q -1.09,-3.37 -1.09,-6.97 v 0 0 q 0,-3.59 1.23,-7.23 v 0 0 q 1.23,-3.64 2.82,-5.37 v 0 0 q 1.59,-1.73 3.59,-2.82 v 0 0 q 2.55,-1.36 4.1,-1.36 v 0 0 q 1.55,0 1.55,0.63 v 0 l -0.55,0.91 v 0 q -2,2.37 -2.87,6.19 v 0 0 q -0.86,3.82 -0.86,6.78 v 0 0 q 0,2.96 0.73,5.87 v 0 0 q 0.72,2.91 1.63,4.32 v 0 0 q 0.91,1.41 2.1,2.14 v 0 0 q 1.73,1.09 3.64,1.09 v 0 0 q 1.91,0 3.73,-1.5 v 0 0 q 1.82,-1.5 2.64,-3.96 v 0 0 q 1.64,-4.55 1.64,-9.37 v 0 0 q 0,-7.64 -3.87,-11.83 v 0 0 q -3.87,-4.19 -11.42,-4.19 z m 61.51,-6.18 v 0 0 q -1.63,9.82 -1.63,25.02 v 0 0 q 0,11.19 0.91,14.74 v 0 l 0.36,1.18 v 0 q 0,1.19 -2,1.19 v 0 0 q -7.01,0 -8.01,-3.91 v 0 0 q -0.09,-0.46 -0.41,-0.46 v 0 0 q -0.32,0 -0.59,0.36 v 0 0 q -2.82,3.73 -8.74,3.73 v 0 0 q -3.27,0 -6.82,-1.63 v 0 0 q -2.19,-1 -3.55,-3.51 v 0 0 q -1.37,-2.5 -1.37,-6.14 v 0 l 1.37,-19.93 v 0 q 0,-6.28 -1.28,-8.92 v 0 0 q -0.45,-1 -0.45,-1.27 v 0 0 q 0,-0.55 0.45,-0.73 v 0 0 q 1.46,-0.45 3.74,-0.45 v 0 0 q 8.82,0 8.82,7.28 v 0 0 q 0,2.27 -1.86,10.37 v 0 0 q -1.87,8.1 -1.87,11.51 v 0 0 q 0,3.42 1.5,5.23 v 0 0 q 1.5,1.83 4.19,1.83 v 0 0 q 2.68,0 4.23,-1.92 v 0 0 q 1.55,-1.91 1.82,-3.82 v 0 l 0.27,-1.91 v 0 q 0.37,-3.18 0.37,-11.19 v 0 0 q 0,-8.01 -0.5,-10.15 v 0 0 q -0.5,-2.14 -0.5,-2.68 v 0 0 q 0,-2.28 3.64,-3.6 v 0 0 q 3.64,-1.32 6.55,-1.32 v 0 0 q 1.36,0 1.36,1.1 z m 32.58,9.19 -0.45,6.91 0.36,3.19 v 0 q 0,1.73 -3.28,1.73 v 0 0 q -6.64,0 -6.64,-5.01 v 0 0 q 0,-1.18 0.64,-3.27 v 0 0 q 0.64,-2.1 0.64,-3.64 v 0 0 q 0,-1.55 -0.91,-2.69 v 0 0 q -0.91,-1.14 -2.64,-1.14 v 0 0 q -1.73,0 -2.96,1.23 v 0 0 q -1.23,1.23 -1.5,2.5 v 0 l -0.37,1.28 v 0 q -0.54,2.82 -0.54,9.42 v 0 0 q 0,6.59 0.18,10.37 v 0 0 q 0.18,3.78 0.36,5.19 v 0 0 q 0.19,1.41 0.19,1.68 v 0 0 q 0,2.28 -2.83,3.69 v 0 0 q -2.82,1.41 -5.64,1.41 v 0 0 q -2.82,0 -2.82,-1.19 v 0 l 0.46,-2.82 v 0 q 1.27,-7.91 1.27,-20.65 v 0 0 q 0,-12.74 -0.91,-17.29 v 0 0 q 0,-1.1 1.91,-1.1 v 0 0 q 4.92,0 6.55,3.37 v 0 0 q 0.09,0.36 0.32,0.36 v 0 0 q 0.23,0 1.23,-0.81 v 0 0 q 3,-2.46 7.1,-2.46 v 0 0 q 2.55,0 5.09,1 v 0 0 q 5.19,2.09 5.19,8.74 z m 33.85,20.84 v 0 0 q 0,5.18 -4.14,8.59 v 0 0 q -4.14,3.42 -9.87,3.42 v 0 0 q -8.37,0 -12.29,-5.05 v 0 0 q -3.91,-5.05 -3.91,-13.7 v 0 0 q 0,-9.19 4.1,-16.29 v 0 0 q 2,-3.64 5.73,-5.73 v 0 0 q 3.73,-2.09 8.74,-2.09 v 0 0 q 7.55,0 10.64,5.09 v 0 0 q 1.28,2.09 1.28,4.92 v 0 0 q 0,4.36 -3.64,6.55 v 0 0 q -1.46,0.82 -2.69,0.82 v 0 0 q -1.23,0 -2,-0.14 v 0 0 q -0.77,-0.14 -2.05,-1.23 v 0 0 q -1.27,-1.09 -1.27,-3 v 0 0 q 0.09,-1 1.55,-1.64 v 0 0 q 1.36,-0.82 1.36,-2.91 v 0 0 q 0,-3.55 -4.37,-3.55 v 0 0 q -1.09,0 -2.59,0.96 v 0 0 q -1.5,0.95 -2.5,2.45 v 0 0 q -1,1.5 -1.87,4.73 v 0 0 q -0.86,3.24 -0.86,6.19 v 0 0 q 0,2.96 0.22,4.46 v 0 0 q 0.23,1.5 1.01,4.1 v 0 0 q 0.77,2.59 2.91,4.23 v 0 0 q 2.14,1.64 5.32,1.64 v 0 0 q 3.82,0 6.73,-3.19 v 0 0 q 1.19,-1.27 1.92,-3.09 v 0 0 q 0.36,-0.73 0.91,-0.73 v 0 0 q 0.81,0 1.22,1.5 v 0 0 q 0.41,1.5 0.41,2.69 z m 13.47,-12.65 v 0 l 0.09,2.27 v 0 q 0,0.55 0.73,0.55 v 0 0 q 2.91,-0.28 5.1,-1.5 v 0 0 q 2.18,-1.23 3.27,-2.78 v 0 0 q 2.19,-3.37 2.37,-5.82 v 0 l 0.09,-1.1 v 0 q 0,-4.91 -3.91,-4.91 v 0 0 q -2.92,0 -4.74,2.55 v 0 0 q -3,4 -3,10.74 z m 19.84,12.1 v 0 0 q 0,3.46 -1.41,6.05 v 0 0 q -1.41,2.59 -3.19,3.82 v 0 0 q -1.77,1.23 -4.14,1.96 v 0 0 q -3,0.91 -5.73,0.91 v 0 0 q -7.64,0 -11.28,-5.73 v 0 0 q -3.64,-5.74 -3.64,-14.61 v 0 0 q 0,-8.87 4.5,-15.79 v 0 0 q 4.51,-6.91 13.51,-6.91 v 0 0 q 8.19,0 11.11,5.73 v 0 0 q 1.18,2.18 1.18,4.14 v 0 0 q 0,1.96 -0.18,3.09 v 0 0 q -0.18,1.14 -1.28,3.42 v 0 0 q -1.09,2.27 -2.91,4.09 v 0 0 q -1.82,1.82 -5.73,3.46 v 0 0 q -3.91,1.64 -9.19,2.18 v 0 0 q -0.73,0 -0.73,0.64 v 0 0 q 0,0.82 0.59,2.41 v 0 0 q 0.59,1.59 1.32,2.69 v 0 0 q 2,2.54 5.92,2.54 v 0 0 q 3.91,0 6.64,-2.54 v 0 0 q 1.45,-1.37 2.36,-3.37 v 0 0 q 0.37,-0.73 0.96,-0.73 v 0 0 q 0.59,0 0.96,1 v 0 0 q 0.36,1 0.36,1.55 z"
         fill="url(#editing-shiny-gradient)"
         id="path56"
         style="fill:url(#editing-shiny-gradient)" />
    </g>
  </g>
  <g
     filter="url(#editing-shiny2)"
     id="g66"
     transform="translate(1.3884355,140.9262)">
    <g
       transform="translate(-16.629963,121.315)"
       id="g64">
      <path
         d="m 17.29,-40.31 v 0 0 q 0,28.21 1.27,36.94 v 0 0 q 0,2.19 -4.18,3.6 v 0 0 Q 10.19,1.64 7.46,1.64 v 0 0 q -2.73,0 -2.73,-0.82 v 0 0 Q 4.73,0.27 5,-0.55 v 0 0 Q 6.73,-4.37 6.73,-31.3 v 0 0 q 0,-25.48 -2.18,-28.3 v 0 l -0.36,-0.55 v 0 q -0.55,-0.46 -0.55,-1.14 v 0 0 q 0,-0.68 1,-1.14 v 0 0 q 1.37,-0.81 4.87,-1.63 v 0 0 q 3.5,-0.82 6.32,-0.82 v 0 0 q 2.83,0 2.83,1.27 v 0 0.27 0 q -1.1,9.47 -1.37,23.03 z m 36.4,-11.74 v 0 l -0.55,33.39 v 0 q 0,15.66 1,18.75 v 0 0 q 0.28,0.55 0.28,1.09 v 0 0 q 0,1.09 -2.64,1.09 v 0 0 q -2.64,0 -5.87,-1.31 v 0 0 q -3.23,-1.32 -3.23,-3.42 v 0 0 Q 44.5,-15.2 44.5,-36.49 v 0 l -0.37,-13.92 v 0 q -0.18,-2.55 -1.04,-4.37 v 0 0 q -0.87,-1.82 -1.69,-2.37 v 0 l -0.72,-0.45 v 0 q -0.64,-0.37 -0.64,-0.82 v 0 0 q 0,-1.28 3.96,-3.14 v 0 0 q 3.96,-1.87 7.69,-1.87 v 0 0 q 1.45,0 1.64,1 v 0 0 q 0.36,2.37 0.36,10.38 z m 15.11,17.74 v 0 0 q -2.37,0.09 -3.42,0.14 v 0 0 q -1.04,0.04 -1.04,-0.5 v 0 0 q 0,-0.55 0.54,-1.09 v 0 0 q 5.83,-5.37 19.66,-5.37 v 0 0 q 4.73,0 7.46,0.82 v 0 l 0.91,0.27 v 0 q 1.09,0.45 1.09,1 v 0 0 q 0,0.46 -0.63,0.73 v 0 0 q -2.46,0.73 -4.74,2.32 v 0 0 q -2.27,1.59 -2.27,2.23 v 0 l 0.55,0.64 v 0 q 2.91,1.63 4.5,5.18 v 0 0 q 1.59,3.55 1.77,6.28 v 0 l 0.19,2.82 v 0 q 0,9.01 -5.01,14.84 v 0 0 q -5,5.82 -13.65,5.82 v 0 0 q -4.37,0 -7.55,-1.55 v 0 0 q -3.19,-1.54 -4.69,-3.5 v 0 0 q -1.5,-1.96 -2.41,-4.41 v 0 0 q -1.09,-3.37 -1.09,-6.97 v 0 0 q 0,-3.59 1.23,-7.23 v 0 0 q 1.22,-3.64 2.82,-5.37 v 0 0 q 1.59,-1.73 3.59,-2.82 v 0 0 q 2.55,-1.36 4.1,-1.36 v 0 0 q 1.54,0 1.54,0.63 v 0 l -0.54,0.91 v 0 q -2,2.37 -2.87,6.19 v 0 0 q -0.86,3.82 -0.86,6.78 v 0 0 q 0,2.96 0.72,5.87 v 0 0 q 0.73,2.91 1.64,4.32 v 0 0 q 0.91,1.41 2.1,2.14 v 0 0 q 1.72,1.09 3.64,1.09 v 0 0 q 1.91,0 3.73,-1.5 v 0 0 q 1.82,-1.5 2.64,-3.96 v 0 0 q 1.63,-4.55 1.63,-9.37 v 0 0 q 0,-7.64 -3.86,-11.83 v 0 0 q -3.87,-4.19 -11.42,-4.19 z m 49.82,-5 v 0 0 q 3.87,-1.91 7.69,-1.91 v 0 0 q 3.82,0 3.82,7.91 v 0 0 q 0,5.83 -2.14,11.83 v 0 0 q -2.14,6.01 -5.32,10.56 v 0 0 q -6.55,9.56 -11.83,12.74 v 0 0 q -1.28,0.73 -1.91,0.73 v 0 0 q -0.64,0 -1.32,-1.37 v 0 0 q -0.69,-1.36 -2.1,-6 v 0 0 q -1.41,-4.64 -2.32,-8.28 v 0 l -0.81,-3.74 v 0 q -1.83,-8 -3.55,-12.78 v 0 0 q -1.73,-4.78 -2.55,-5.51 v 0 l -0.91,-0.82 v 0 q -0.91,-0.45 -0.91,-1.09 v 0 l 0.45,-0.82 v 0 q 1.19,-1.09 3.96,-2.23 v 0 0 q 2.78,-1.13 6.14,-1.13 v 0 0 q 1.55,0 1.91,1.73 v 0 0 q 1.37,4.18 2.37,9.82 v 0 0 q 1,5.65 2.69,12.74 v 0 0 q 1.68,7.1 2.77,7.19 v 0 0 q 0.55,0 1.23,-0.82 v 0 0 q 0.68,-0.82 1.64,-2.18 v 0 0 q 0.95,-1.37 2.36,-5.28 v 0 0 q 1.41,-3.91 1.41,-6.69 v 0 0 q 0,-2.77 -0.22,-4.27 v 0 0 q -0.23,-1.5 -1.6,-3.51 v 0 0 q -1.36,-2 -3.09,-2.32 v 0 0 q -1.73,-0.32 -1.73,-1.14 v 0 0 q 0,-1.45 3.87,-3.36 z m 23.34,16.2 v 0 l 0.09,2.27 v 0 q 0,0.55 0.73,0.55 v 0 0 q 2.91,-0.28 5.09,-1.5 v 0 0 q 2.19,-1.23 3.28,-2.78 v 0 0 q 2.18,-3.37 2.37,-5.82 v 0 l 0.09,-1.1 v 0 q 0,-4.91 -3.92,-4.91 v 0 0 q -2.91,0 -4.73,2.55 v 0 0 q -3,4 -3,10.74 z m 19.84,12.1 v 0 0 q 0,3.46 -1.41,6.05 v 0 0 q -1.41,2.59 -3.19,3.82 v 0 0 q -1.77,1.23 -4.14,1.96 v 0 0 q -3,0.91 -5.73,0.91 v 0 0 q -7.65,0 -11.29,-5.73 v 0 0 q -3.64,-5.74 -3.64,-14.61 v 0 0 q 0,-8.87 4.51,-15.79 v 0 0 q 4.5,-6.91 13.51,-6.91 v 0 0 q 8.19,0 11.1,5.73 v 0 0 q 1.19,2.18 1.19,4.14 v 0 0 q 0,1.96 -0.18,3.09 v 0 0 q -0.19,1.14 -1.28,3.42 v 0 0 q -1.09,2.27 -2.91,4.09 v 0 0 q -1.82,1.82 -5.73,3.46 v 0 0 q -3.92,1.64 -9.19,2.18 v 0 0 q -0.73,0 -0.73,0.64 v 0 0 q 0,0.82 0.59,2.41 v 0 0 q 0.59,1.59 1.32,2.69 v 0 0 q 2,2.54 5.91,2.54 v 0 0 q 3.92,0 6.65,-2.54 v 0 0 q 1.45,-1.37 2.36,-3.37 v 0 0 q 0.37,-0.73 0.96,-0.73 v 0 0 q 0.59,0 0.95,1 v 0 0 q 0.37,1 0.37,1.55 z m 30.3,-23.3 v 0 0 q -2.37,0.09 -3.41,0.14 v 0 0 q -1.05,0.04 -1.05,-0.5 v 0 0 q 0,-0.55 0.55,-1.09 v 0 0 q 5.82,-5.37 19.65,-5.37 v 0 0 q 4.74,0 7.47,0.82 v 0 l 0.91,0.27 v 0 q 1.09,0.45 1.09,1 v 0 0 q 0,0.46 -0.64,0.73 v 0 0 q -2.46,0.73 -4.73,2.32 v 0 0 q -2.28,1.59 -2.28,2.23 v 0 l 0.55,0.64 v 0 q 2.91,1.63 4.5,5.18 v 0 0 q 1.6,3.55 1.78,6.28 v 0 l 0.18,2.82 v 0 q 0,9.01 -5,14.84 v 0 0 q -5.01,5.82 -13.65,5.82 v 0 0 q -4.37,0 -7.56,-1.55 v 0 0 q -3.18,-1.54 -4.68,-3.5 v 0 0 q -1.51,-1.96 -2.42,-4.41 v 0 0 q -1.09,-3.37 -1.09,-6.97 v 0 0 q 0,-3.59 1.23,-7.23 v 0 0 q 1.23,-3.64 2.82,-5.37 v 0 0 q 1.59,-1.73 3.6,-2.82 v 0 0 q 2.54,-1.36 4.09,-1.36 v 0 0 q 1.55,0 1.55,0.63 v 0 l -0.55,0.91 v 0 q -2,2.37 -2.86,6.19 v 0 0 q -0.87,3.82 -0.87,6.78 v 0 0 q 0,2.96 0.73,5.87 v 0 0 q 0.73,2.91 1.64,4.32 v 0 0 q 0.91,1.41 2.09,2.14 v 0 0 q 1.73,1.09 3.64,1.09 v 0 0 q 1.91,0 3.73,-1.5 v 0 0 q 1.82,-1.5 2.64,-3.96 v 0 0 q 1.64,-4.55 1.64,-9.37 v 0 0 q 0,-7.64 -3.87,-11.83 v 0 0 q -3.87,-4.19 -11.42,-4.19 z m 29.12,20.39 v 0 0 q 0.18,-9.19 0.18,-15.11 v 0 0 q 0,-5.91 -0.82,-11.28 v 0 0 q 0,-0.91 1.82,-0.91 v 0 0 q 1.82,0 3.14,0.45 v 0 0 q 1.32,0.46 1.87,1 v 0 0 q 1.45,1.46 1.68,1.46 v 0 0 q 0.23,0 1.41,-0.82 v 0 0 q 3.55,-2.28 7.87,-2.28 v 0 0 q 4.33,0 7.56,2.19 v 0 0 q 3.23,2.18 4.59,5.73 v 0 0 q 2.46,6.1 2.46,12.92 v 0 0 q 0,6.74 -2.46,13.47 v 0 0 q -1.36,3.64 -4,5.96 v 0 0 q -2.64,2.32 -6.19,2.32 v 0 0 q -7.01,0 -7.01,-8.1 v 0 0 q 0,-2.18 0.91,-2.18 v 0 0 q 0.19,0 1.05,0.41 v 0 0 q 0.86,0.41 1.68,0.41 v 0 0 q 6.46,0 6.46,-13.7 v 0 0 q 0,-13.69 -6.91,-13.69 v 0 0 q -1.91,0 -3.23,0.86 v 0 0 q -1.32,0.87 -1.69,1.69 v 0 l -0.36,0.91 v 0 q -1.27,8.19 -1.27,31.57 v 0 0 q 0,10.56 0.41,15.15 v 0 0 q 0.41,4.6 0.41,5.51 v 0 0 q 0,0.91 -0.55,1.64 v 0 0 q -1.82,2.36 -4.91,4.23 v 0 0 q -3.1,1.86 -5.46,1.86 v 0 0 q -0.91,0 -0.91,-1.18 v 0 0 q 1.45,-9.19 2.27,-40.49 z m 44.86,-9.19 v 0 l 0.09,2.27 v 0 q 0,0.55 0.73,0.55 v 0 0 q 2.91,-0.28 5.1,-1.5 v 0 0 q 2.18,-1.23 3.27,-2.78 v 0 0 q 2.19,-3.37 2.37,-5.82 v 0 l 0.09,-1.1 v 0 q 0,-4.91 -3.91,-4.91 v 0 0 q -2.91,0 -4.73,2.55 v 0 0 q -3.01,4 -3.01,10.74 z m 19.84,12.1 v 0 0 q 0,3.46 -1.41,6.05 v 0 0 q -1.41,2.59 -3.18,3.82 v 0 0 q -1.78,1.23 -4.14,1.96 v 0 0 q -3.01,0.91 -5.74,0.91 v 0 0 q -7.64,0 -11.28,-5.73 v 0 0 q -3.64,-5.74 -3.64,-14.61 v 0 0 q 0,-8.87 4.5,-15.79 v 0 0 q 4.51,-6.91 13.52,-6.91 v 0 0 q 8.19,0 11.1,5.73 v 0 0 q 1.18,2.18 1.18,4.14 v 0 0 q 0,1.96 -0.18,3.09 v 0 0 q -0.18,1.14 -1.27,3.42 v 0 0 q -1.1,2.27 -2.92,4.09 v 0 0 q -1.82,1.82 -5.73,3.46 v 0 0 q -3.91,1.64 -9.19,2.18 v 0 0 q -0.73,0 -0.73,0.64 v 0 0 q 0,0.82 0.59,2.41 v 0 0 q 0.59,1.59 1.32,2.69 v 0 0 q 2,2.54 5.92,2.54 v 0 0 q 3.91,0 6.64,-2.54 v 0 0 q 1.46,-1.37 2.37,-3.37 v 0 0 q 0.36,-0.73 0.95,-0.73 v 0 0 q 0.59,0 0.96,1 v 0 0 q 0.36,1 0.36,1.55 z m 5.01,11.65 v 0 0 q 1.63,-9.83 1.63,-23.57 v 0 0 q 0,-13.74 -0.81,-17.84 v 0 0 q 0,-1.18 2.73,-1.18 v 0 0 q 4.18,0 5.55,3.18 v 0 0 q 0.09,0.28 0.45,0.28 v 0 0 q 0.37,0 0.55,-0.18 v 0 0 q 2.82,-2.92 8.73,-2.92 v 0 0 q 5.92,0 9.38,3.01 v 0 0 q 3.45,3 3.45,8.73 v 0 0 q 0,3.46 -0.59,9.83 v 0 0 q -0.59,6.37 -0.59,9.46 v 0 0 q 0,7.37 2.46,10.65 v 0 0 q 0.36,0.46 0.36,0.91 v 0 0 q 0,1.18 -2.55,1.18 v 0 0 q -11.28,0 -11.28,-10.01 v 0 0 q 0,-3.82 1.73,-10.64 v 0 0 q 1.73,-6.83 1.73,-10.38 v 0 0 q 0,-7.28 -6.01,-7.28 v 0 0 q -2.91,0 -4.41,1.73 v 0 0 q -1.5,1.73 -1.68,3.96 v 0 0 q -0.19,2.23 -0.19,8.42 v 0 0 q 0,9.46 0.64,16.47 v 0 l 0.18,2 v 0 q 0,2.55 -3.32,3.96 v 0 0 q -3.32,1.41 -5.73,1.41 v 0 0 q -2.41,0 -2.41,-1.18 z m 63.97,-13.11 v 0 0 q 0,3.92 -1.5,6.83 v 0 0 q -1.5,2.91 -3.41,4.28 v 0 0 Q 348.07,0 345.44,0.82 v 0 0 q -3.46,1.09 -6.28,1.09 v 0 0 q -5.92,0 -9.83,-2.32 v 0 0 q -3.91,-2.32 -3.91,-7.42 v 0 0 q 0,-3 1.63,-4.91 v 0 0 q 2.55,-2.82 6.1,-2.82 v 0 0 q 1.09,0 1.09,1 v 0 0 q 0,0.09 -0.41,1.41 v 0 0 q -0.41,1.32 -0.41,3.32 v 0 0 q 0,2 1.6,3.55 v 0 0 q 1.59,1.55 3.86,1.55 v 0 0 q 2.28,0 3.64,-0.78 v 0 0 q 1.37,-0.77 1.91,-1.95 v 0 0 q 0.82,-1.64 0.82,-3.1 v 0 0 q 0,-2.64 -2.64,-4.55 v 0 0 q -2.63,-1.91 -5.82,-3 v 0 0 q -3.18,-1.09 -5.82,-3.64 v 0 0 q -2.64,-2.55 -2.64,-6.37 v 0 0 q 0,-6.55 4.14,-9.83 v 0 0 q 4.14,-3.27 11.24,-3.27 v 0 0 q 3.09,0 6.5,0.86 v 0 0 q 3.42,0.87 3.42,2.91 v 0 0 q 0,2.05 -0.69,3.78 v 0 0 q -0.68,1.73 -1.68,1.73 v 0 0 q -0.55,0 -0.73,-0.41 v 0 0 q -0.18,-0.41 -0.64,-0.96 v 0 0 q -0.45,-0.54 -2.18,-1.41 v 0 0 q -1.73,-0.86 -2.96,-0.86 v 0 0 q -1.23,0 -1.63,0.04 v 0 0 q -0.41,0.05 -1.42,0.28 v 0 0 q -1,0.23 -1.82,0.68 v 0 0 q -2.09,1.18 -2.09,3.46 v 0 0 q 0,1.45 0.64,2.14 v 0 0 q 0.64,0.68 1,1.04 v 0 0 q 0.36,0.37 1.27,0.87 v 0 0 q 0.91,0.5 1.28,0.68 v 0 0 q 0.36,0.18 1.64,0.77 v 0 0 q 1.27,0.6 1.63,0.78 v 0 0 q 9.65,4.55 9.65,12.37 z m 12.56,-21.84 v 0 0 q -2.37,0.09 -3.41,0.14 v 0 0 q -1.05,0.04 -1.05,-0.5 v 0 0 q 0,-0.55 0.54,-1.09 v 0 0 q 5.83,-5.37 19.66,-5.37 v 0 0 q 4.73,0 7.46,0.82 v 0 l 0.91,0.27 v 0 q 1.09,0.45 1.09,1 v 0 0 q 0,0.46 -0.63,0.73 v 0 0 q -2.46,0.73 -4.73,2.32 v 0 0 q -2.28,1.59 -2.28,2.23 v 0 l 0.55,0.64 v 0 q 2.91,1.63 4.5,5.18 v 0 0 q 1.59,3.55 1.78,6.28 v 0 l 0.18,2.82 v 0 q 0,9.01 -5.01,14.84 v 0 0 q -5,5.82 -13.65,5.82 v 0 0 q -4.37,0 -7.55,-1.55 v 0 0 q -3.19,-1.54 -4.69,-3.5 v 0 0 q -1.5,-1.96 -2.41,-4.41 v 0 0 q -1.09,-3.37 -1.09,-6.97 v 0 0 q 0,-3.59 1.23,-7.23 v 0 0 q 1.23,-3.64 2.82,-5.37 v 0 0 q 1.59,-1.73 3.59,-2.82 v 0 0 q 2.55,-1.36 4.1,-1.36 v 0 0 q 1.55,0 1.55,0.63 v 0 l -0.55,0.91 v 0 q -2,2.37 -2.87,6.19 v 0 0 q -0.86,3.82 -0.86,6.78 v 0 0 q 0,2.96 0.73,5.87 v 0 0 q 0.72,2.91 1.63,4.32 v 0 0 q 0.91,1.41 2.1,2.14 v 0 0 q 1.73,1.09 3.64,1.09 v 0 0 q 1.91,0 3.73,-1.5 v 0 0 q 1.82,-1.5 2.64,-3.96 v 0 0 q 1.64,-4.55 1.64,-9.37 v 0 0 q 0,-7.64 -3.87,-11.83 v 0 0 q -3.87,-4.19 -11.42,-4.19 z m 61.51,-6.18 v 0 0 q -1.63,9.82 -1.63,25.02 v 0 0 q 0,11.19 0.91,14.74 v 0 l 0.36,1.18 v 0 q 0,1.19 -2,1.19 v 0 0 q -7.01,0 -8.01,-3.91 v 0 0 q -0.09,-0.46 -0.41,-0.46 v 0 0 q -0.32,0 -0.59,0.36 v 0 0 q -2.82,3.73 -8.74,3.73 v 0 0 q -3.27,0 -6.82,-1.63 v 0 0 q -2.19,-1 -3.55,-3.51 v 0 0 q -1.37,-2.5 -1.37,-6.14 v 0 l 1.37,-19.93 v 0 q 0,-6.28 -1.28,-8.92 v 0 0 q -0.45,-1 -0.45,-1.27 v 0 0 q 0,-0.55 0.45,-0.73 v 0 0 q 1.46,-0.45 3.74,-0.45 v 0 0 q 8.82,0 8.82,7.28 v 0 0 q 0,2.27 -1.86,10.37 v 0 0 q -1.87,8.1 -1.87,11.51 v 0 0 q 0,3.42 1.5,5.23 v 0 0 q 1.5,1.83 4.19,1.83 v 0 0 q 2.68,0 4.23,-1.92 v 0 0 q 1.55,-1.91 1.82,-3.82 v 0 l 0.27,-1.91 v 0 q 0.37,-3.18 0.37,-11.19 v 0 0 q 0,-8.01 -0.5,-10.15 v 0 0 q -0.5,-2.14 -0.5,-2.68 v 0 0 q 0,-2.28 3.64,-3.6 v 0 0 q 3.64,-1.32 6.55,-1.32 v 0 0 q 1.36,0 1.36,1.1 z m 32.58,9.19 -0.45,6.91 0.36,3.19 v 0 q 0,1.73 -3.28,1.73 v 0 0 q -6.64,0 -6.64,-5.01 v 0 0 q 0,-1.18 0.64,-3.27 v 0 0 q 0.64,-2.1 0.64,-3.64 v 0 0 q 0,-1.55 -0.91,-2.69 v 0 0 q -0.91,-1.14 -2.64,-1.14 v 0 0 q -1.73,0 -2.96,1.23 v 0 0 q -1.23,1.23 -1.5,2.5 v 0 l -0.37,1.28 v 0 q -0.54,2.82 -0.54,9.42 v 0 0 q 0,6.59 0.18,10.37 v 0 0 q 0.18,3.78 0.36,5.19 v 0 0 q 0.19,1.41 0.19,1.68 v 0 0 q 0,2.28 -2.83,3.69 v 0 0 q -2.82,1.41 -5.64,1.41 v 0 0 q -2.82,0 -2.82,-1.19 v 0 l 0.46,-2.82 v 0 q 1.27,-7.91 1.27,-20.65 v 0 0 q 0,-12.74 -0.91,-17.29 v 0 0 q 0,-1.1 1.91,-1.1 v 0 0 q 4.92,0 6.55,3.37 v 0 0 q 0.09,0.36 0.32,0.36 v 0 0 q 0.23,0 1.23,-0.81 v 0 0 q 3,-2.46 7.1,-2.46 v 0 0 q 2.55,0 5.09,1 v 0 0 q 5.19,2.09 5.19,8.74 z m 33.85,20.84 v 0 0 q 0,5.18 -4.14,8.59 v 0 0 q -4.14,3.42 -9.87,3.42 v 0 0 q -8.37,0 -12.29,-5.05 v 0 0 q -3.91,-5.05 -3.91,-13.7 v 0 0 q 0,-9.19 4.1,-16.29 v 0 0 q 2,-3.64 5.73,-5.73 v 0 0 q 3.73,-2.09 8.74,-2.09 v 0 0 q 7.55,0 10.64,5.09 v 0 0 q 1.28,2.09 1.28,4.92 v 0 0 q 0,4.36 -3.64,6.55 v 0 0 q -1.46,0.82 -2.69,0.82 v 0 0 q -1.23,0 -2,-0.14 v 0 0 q -0.77,-0.14 -2.05,-1.23 v 0 0 q -1.27,-1.09 -1.27,-3 v 0 0 q 0.09,-1 1.55,-1.64 v 0 0 q 1.36,-0.82 1.36,-2.91 v 0 0 q 0,-3.55 -4.37,-3.55 v 0 0 q -1.09,0 -2.59,0.96 v 0 0 q -1.5,0.95 -2.5,2.45 v 0 0 q -1,1.5 -1.87,4.73 v 0 0 q -0.86,3.24 -0.86,6.19 v 0 0 q 0,2.96 0.22,4.46 v 0 0 q 0.23,1.5 1.01,4.1 v 0 0 q 0.77,2.59 2.91,4.23 v 0 0 q 2.14,1.64 5.32,1.64 v 0 0 q 3.82,0 6.73,-3.19 v 0 0 q 1.19,-1.27 1.92,-3.09 v 0 0 q 0.36,-0.73 0.91,-0.73 v 0 0 q 0.81,0 1.22,1.5 v 0 0 q 0.41,1.5 0.41,2.69 z m 13.47,-12.65 v 0 l 0.09,2.27 v 0 q 0,0.55 0.73,0.55 v 0 0 q 2.91,-0.28 5.1,-1.5 v 0 0 q 2.18,-1.23 3.27,-2.78 v 0 0 q 2.19,-3.37 2.37,-5.82 v 0 l 0.09,-1.1 v 0 q 0,-4.91 -3.91,-4.91 v 0 0 q -2.92,0 -4.74,2.55 v 0 0 q -3,4 -3,10.74 z m 19.84,12.1 v 0 0 q 0,3.46 -1.41,6.05 v 0 0 q -1.41,2.59 -3.19,3.82 v 0 0 q -1.77,1.23 -4.14,1.96 v 0 0 q -3,0.91 -5.73,0.91 v 0 0 q -7.64,0 -11.28,-5.73 v 0 0 q -3.64,-5.74 -3.64,-14.61 v 0 0 q 0,-8.87 4.5,-15.79 v 0 0 q 4.51,-6.91 13.51,-6.91 v 0 0 q 8.19,0 11.11,5.73 v 0 0 q 1.18,2.18 1.18,4.14 v 0 0 q 0,1.96 -0.18,3.09 v 0 0 q -0.18,1.14 -1.28,3.42 v 0 0 q -1.09,2.27 -2.91,4.09 v 0 0 q -1.82,1.82 -5.73,3.46 v 0 0 q -3.91,1.64 -9.19,2.18 v 0 0 q -0.73,0 -0.73,0.64 v 0 0 q 0,0.82 0.59,2.41 v 0 0 q 0.59,1.59 1.32,2.69 v 0 0 q 2,2.54 5.92,2.54 v 0 0 q 3.91,0 6.64,-2.54 v 0 0 q 1.45,-1.37 2.36,-3.37 v 0 0 q 0.37,-0.73 0.96,-0.73 v 0 0 q 0.59,0 0.96,1 v 0 0 q 0.36,1 0.36,1.55 z"
         fill="url(#editing-shiny-gradient2)"
         id="path62"
         style="fill:url(#editing-shiny-gradient2)" />
    </g>
  </g>
  <style
     id="style68">text {
  font-size: 64px;
  font-family: Arial Black;
  dominant-baseline: central;
  text-anchor: middle;
}</style>
</svg>
