<svg width="742.11875px" height="171.2px" xmlns="http://www.w3.org/2000/svg" viewBox="-121.05937499999999 -10.599999999999994 742.11875 171.2" style="background: none;" preserveAspectRatio="xMidYMid"><defs><linearGradient id="editing-shiny-gradient" x1="0.04322727117869957" x2="0.9567727288213004" y1="0.2966316784620999" y2="0.7033683215379001" gradientUnits="objectBoundingBox"><stop offset="0.0" stop-color="#ffb200"></stop><stop offset="0.5" stop-color="#e10057"></stop><stop offset="1.0" stop-color="#5a1a80"></stop></linearGradient><linearGradient id="editing-shiny-gradient2" x1="0" x2="0" y1="0" y2="1"><stop offset="0.2" stop-color="#fff" stop-opacity="0.8"></stop><stop offset="0.8" stop-color="#fff" stop-opacity="0"></stop></linearGradient><filter id="editing-shiny2" x="-100%" y="-100%" width="300%" height="300%"><feMorphology operator="erode" radius="2"></feMorphology></filter><filter id="editing-shiny" x="-100%" y="-100%" width="300%" height="300%"><feFlood flood-color="#fff" result="flood"></feFlood><feConvolveMatrix in="SourceGraphic" result="conv" order="8,8" divisor="1" kernelMatrix="0 0 0 0 0 0 0 0 0 0 0 1 1 0 0 0 0 0 0 1 1 0 0 0 0 0 1 0 0 1 0 0 0 0 1 0 0 1 0 0 0 1 0 0 0 0 1 0 0 1 1 0 0 1 1 0 0 0 0 1 1 0 0 0 "></feConvolveMatrix><feOffset dx="0" dy="4" in="conv" result="offset"></feOffset><feComposite operator="in" in="flood" in2="offset" result="comp"></feComposite><feGaussianBlur in="offset" stdDeviation="3" result="shadow"></feGaussianBlur><feColorMatrix in="shadow" type="matrix" values="0.7 0 0 0 0  0 0.7 0 0 0  0 0 0.7 0 0  0 0 0 0.3 0" result="dark-shadow"></feColorMatrix><feOffset dx="0" dy="4" in="dark-shadow" result="offset-shadow"></feOffset><feOffset dx="0" dy="2" in="conv" result="offset-2"></feOffset><feComposite operator="out" in="offset" in2="offset-2" result="edge-diff"></feComposite><feGaussianBlur in="edge-diff" stdDeviation="1" result="edge-blur"></feGaussianBlur><feColorMatrix in="edge-blur" result="edge-shadow" type="matrix" values="0 0 0 0 0  0 0 0 0 0  0 0 0 0 0  0 0 0 0.5 0"></feColorMatrix><feComposite operator="in" in="edge-shadow" in2="offset" result="edge-shadow-in"></feComposite><feOffset dx="0" dy="1" in="edge-shadow-in" result="edge-shadow-final"></feOffset><feMerge result="out"><feMergeNode in="offset-shadow"></feMergeNode><feMergeNode in="comp"></feMergeNode><feMergeNode in="edge-shadow-final"></feMergeNode><feMergeNode in="SourceGraphic"></feMergeNode></feMerge></filter></defs><g filter="url(#editing-shiny)"><g transform="translate(-16.63001036643982, 121.31499671936035)"><path d="M17.29-40.31L17.29-40.31L17.29-40.31Q17.29-12.10 18.56-3.37L18.56-3.37L18.56-3.37Q18.56-1.18 14.38 0.23L14.38 0.23L14.38 0.23Q10.19 1.64 7.46 1.64L7.46 1.64L7.46 1.64Q4.73 1.64 4.73 0.82L4.73 0.82L4.73 0.82Q4.73 0.27 5.00-0.55L5.00-0.55L5.00-0.55Q6.73-4.37 6.73-31.30L6.73-31.30L6.73-31.30Q6.73-56.78 4.55-59.60L4.55-59.60L4.19-60.15L4.19-60.15Q3.64-60.61 3.64-61.29L3.64-61.29L3.64-61.29Q3.64-61.97 4.64-62.43L4.64-62.43L4.64-62.43Q6.01-63.24 9.51-64.06L9.51-64.06L9.51-64.06Q13.01-64.88 15.83-64.88L15.83-64.88L15.83-64.88Q18.66-64.88 18.66-63.61L18.66-63.61L18.66-63.34L18.66-63.34Q17.56-53.87 17.29-40.31ZM53.69-52.05L53.69-52.05L53.14-18.66L53.14-18.66Q53.14-3.00 54.14 0.09L54.14 0.09L54.14 0.09Q54.42 0.64 54.42 1.18L54.42 1.18L54.42 1.18Q54.42 2.27 51.78 2.27L51.78 2.27L51.78 2.27Q49.14 2.27 45.91 0.96L45.91 0.96L45.91 0.96Q42.68-0.36 42.68-2.46L42.68-2.46L42.68-2.46Q44.50-15.20 44.50-36.49L44.50-36.49L44.13-50.41L44.13-50.41Q43.95-52.96 43.09-54.78L43.09-54.78L43.09-54.78Q42.22-56.60 41.40-57.15L41.40-57.15L40.68-57.60L40.68-57.60Q40.04-57.97 40.04-58.42L40.04-58.42L40.04-58.42Q40.04-59.70 44.00-61.56L44.00-61.56L44.00-61.56Q47.96-63.43 51.69-63.43L51.69-63.43L51.69-63.43Q53.14-63.43 53.33-62.43L53.33-62.43L53.33-62.43Q53.69-60.06 53.69-52.05ZM68.80-34.31L68.80-34.31L68.80-34.31Q66.43-34.22 65.38-34.17L65.38-34.17L65.38-34.17Q64.34-34.13 64.34-34.67L64.34-34.67L64.34-34.67Q64.34-35.22 64.88-35.76L64.88-35.76L64.88-35.76Q70.71-41.13 84.54-41.13L84.54-41.13L84.54-41.13Q89.27-41.13 92.00-40.31L92.00-40.31L92.91-40.04L92.91-40.04Q94.00-39.59 94.00-39.04L94.00-39.04L94.00-39.04Q94.00-38.58 93.37-38.31L93.37-38.31L93.37-38.31Q90.91-37.58 88.63-35.99L88.63-35.99L88.63-35.99Q86.36-34.40 86.36-33.76L86.36-33.76L86.91-33.12L86.91-33.12Q89.82-31.49 91.41-27.94L91.41-27.94L91.41-27.94Q93.00-24.39 93.18-21.66L93.18-21.66L93.37-18.84L93.37-18.84Q93.37-9.83 88.36-4.00L88.36-4.00L88.36-4.00Q83.36 1.82 74.71 1.82L74.71 1.82L74.71 1.82Q70.34 1.82 67.16 0.27L67.16 0.27L67.16 0.27Q63.97-1.27 62.47-3.23L62.47-3.23L62.47-3.23Q60.97-5.19 60.06-7.64L60.06-7.64L60.06-7.64Q58.97-11.01 58.97-14.61L58.97-14.61L58.97-14.61Q58.97-18.20 60.20-21.84L60.20-21.84L60.20-21.84Q61.42-25.48 63.02-27.21L63.02-27.21L63.02-27.21Q64.61-28.94 66.61-30.03L66.61-30.03L66.61-30.03Q69.16-31.39 70.71-31.39L70.71-31.39L70.71-31.39Q72.25-31.39 72.25-30.76L72.25-30.76L71.71-29.85L71.71-29.85Q69.71-27.48 68.84-23.66L68.84-23.66L68.84-23.66Q67.98-19.84 67.98-16.88L67.98-16.88L67.98-16.88Q67.98-13.92 68.70-11.01L68.70-11.01L68.70-11.01Q69.43-8.10 70.34-6.69L70.34-6.69L70.34-6.69Q71.25-5.28 72.44-4.55L72.44-4.55L72.44-4.55Q74.16-3.46 76.08-3.46L76.08-3.46L76.08-3.46Q77.99-3.46 79.81-4.96L79.81-4.96L79.81-4.96Q81.63-6.46 82.45-8.92L82.45-8.92L82.45-8.92Q84.08-13.47 84.08-18.29L84.08-18.29L84.08-18.29Q84.08-25.93 80.22-30.12L80.22-30.12L80.22-30.12Q76.35-34.31 68.80-34.31ZM118.62-39.31L118.62-39.31L118.62-39.31Q122.49-41.22 126.31-41.22L126.31-41.22L126.31-41.22Q130.13-41.22 130.13-33.31L130.13-33.31L130.13-33.31Q130.13-27.48 127.99-21.48L127.99-21.48L127.99-21.48Q125.85-15.47 122.67-10.92L122.67-10.92L122.67-10.92Q116.12-1.36 110.84 1.82L110.84 1.82L110.84 1.82Q109.56 2.55 108.93 2.55L108.93 2.55L108.93 2.55Q108.29 2.55 107.61 1.18L107.61 1.18L107.61 1.18Q106.92-0.18 105.51-4.82L105.51-4.82L105.51-4.82Q104.10-9.46 103.19-13.10L103.19-13.10L102.38-16.84L102.38-16.84Q100.55-24.84 98.83-29.62L98.83-29.62L98.83-29.62Q97.10-34.40 96.28-35.13L96.28-35.13L95.37-35.95L95.37-35.95Q94.46-36.40 94.46-37.04L94.46-37.04L94.91-37.86L94.91-37.86Q96.10-38.95 98.87-40.09L98.87-40.09L98.87-40.09Q101.65-41.22 105.01-41.22L105.01-41.22L105.01-41.22Q106.56-41.22 106.92-39.49L106.92-39.49L106.92-39.49Q108.29-35.31 109.29-29.67L109.29-29.67L109.29-29.67Q110.29-24.02 111.98-16.93L111.98-16.93L111.98-16.93Q113.66-9.83 114.75-9.74L114.75-9.74L114.75-9.74Q115.30-9.74 115.98-10.56L115.98-10.56L115.98-10.56Q116.66-11.38 117.62-12.74L117.62-12.74L117.62-12.74Q118.57-14.11 119.98-18.02L119.98-18.02L119.98-18.02Q121.39-21.93 121.39-24.71L121.39-24.71L121.39-24.71Q121.39-27.48 121.17-28.98L121.17-28.98L121.17-28.98Q120.94-30.48 119.57-32.49L119.57-32.49L119.57-32.49Q118.21-34.49 116.48-34.81L116.48-34.81L116.48-34.81Q114.75-35.13 114.75-35.95L114.75-35.95L114.75-35.95Q114.75-37.40 118.62-39.31ZM141.96-23.11L141.96-23.11L142.05-20.84L142.05-20.84Q142.05-20.29 142.78-20.29L142.78-20.29L142.78-20.29Q145.69-20.57 147.87-21.79L147.87-21.79L147.87-21.79Q150.06-23.02 151.15-24.57L151.15-24.57L151.15-24.57Q153.33-27.94 153.52-30.39L153.52-30.39L153.61-31.49L153.61-31.49Q153.61-36.40 149.69-36.40L149.69-36.40L149.69-36.40Q146.78-36.40 144.96-33.85L144.96-33.85L144.96-33.85Q141.96-29.85 141.96-23.11ZM161.80-11.01L161.80-11.01L161.80-11.01Q161.80-7.55 160.39-4.96L160.39-4.96L160.39-4.96Q158.98-2.37 157.20-1.14L157.20-1.14L157.20-1.14Q155.43 0.09 153.06 0.82L153.06 0.82L153.06 0.82Q150.06 1.73 147.33 1.73L147.33 1.73L147.33 1.73Q139.68 1.73 136.04-4.00L136.04-4.00L136.04-4.00Q132.40-9.74 132.40-18.61L132.40-18.61L132.40-18.61Q132.40-27.48 136.91-34.40L136.91-34.40L136.91-34.40Q141.41-41.31 150.42-41.31L150.42-41.31L150.42-41.31Q158.61-41.31 161.52-35.58L161.52-35.58L161.52-35.58Q162.71-33.40 162.71-31.44L162.71-31.44L162.71-31.44Q162.71-29.48 162.53-28.35L162.53-28.35L162.53-28.35Q162.34-27.21 161.25-24.93L161.25-24.93L161.25-24.93Q160.16-22.66 158.34-20.84L158.34-20.84L158.34-20.84Q156.52-19.02 152.61-17.38L152.61-17.38L152.61-17.38Q148.69-15.74 143.42-15.20L143.42-15.20L143.42-15.20Q142.69-15.20 142.69-14.56L142.69-14.56L142.69-14.56Q142.69-13.74 143.28-12.15L143.28-12.15L143.28-12.15Q143.87-10.56 144.60-9.46L144.60-9.46L144.60-9.46Q146.60-6.92 150.51-6.92L150.51-6.92L150.51-6.92Q154.43-6.92 157.16-9.46L157.16-9.46L157.16-9.46Q158.61-10.83 159.52-12.83L159.52-12.83L159.52-12.83Q159.89-13.56 160.48-13.56L160.48-13.56L160.48-13.56Q161.07-13.56 161.43-12.56L161.43-12.56L161.43-12.56Q161.80-11.56 161.80-11.01ZM192.10-34.31L192.10-34.31L192.10-34.31Q189.73-34.22 188.69-34.17L188.69-34.17L188.69-34.17Q187.64-34.13 187.64-34.67L187.64-34.67L187.64-34.67Q187.64-35.22 188.19-35.76L188.19-35.76L188.19-35.76Q194.01-41.13 207.84-41.13L207.84-41.13L207.84-41.13Q212.58-41.13 215.31-40.31L215.31-40.31L216.22-40.04L216.22-40.04Q217.31-39.59 217.31-39.04L217.31-39.04L217.31-39.04Q217.31-38.58 216.67-38.31L216.67-38.31L216.67-38.31Q214.21-37.58 211.94-35.99L211.94-35.99L211.94-35.99Q209.66-34.40 209.66-33.76L209.66-33.76L210.21-33.12L210.21-33.12Q213.12-31.49 214.71-27.94L214.71-27.94L214.71-27.94Q216.31-24.39 216.49-21.66L216.49-21.66L216.67-18.84L216.67-18.84Q216.67-9.83 211.67-4.00L211.67-4.00L211.67-4.00Q206.66 1.82 198.02 1.82L198.02 1.82L198.02 1.82Q193.65 1.82 190.46 0.27L190.46 0.27L190.46 0.27Q187.28-1.27 185.78-3.23L185.78-3.23L185.78-3.23Q184.27-5.19 183.36-7.64L183.36-7.64L183.36-7.64Q182.27-11.01 182.27-14.61L182.27-14.61L182.27-14.61Q182.27-18.20 183.50-21.84L183.50-21.84L183.50-21.84Q184.73-25.48 186.32-27.21L186.32-27.21L186.32-27.21Q187.91-28.94 189.92-30.03L189.92-30.03L189.92-30.03Q192.46-31.39 194.01-31.39L194.01-31.39L194.01-31.39Q195.56-31.39 195.56-30.76L195.56-30.76L195.01-29.85L195.01-29.85Q193.01-27.48 192.15-23.66L192.15-23.66L192.15-23.66Q191.28-19.84 191.28-16.88L191.28-16.88L191.28-16.88Q191.28-13.92 192.01-11.01L192.01-11.01L192.01-11.01Q192.74-8.10 193.65-6.69L193.65-6.69L193.65-6.69Q194.56-5.28 195.74-4.55L195.74-4.55L195.74-4.55Q197.47-3.46 199.38-3.46L199.38-3.46L199.38-3.46Q201.29-3.46 203.11-4.96L203.11-4.96L203.11-4.96Q204.93-6.46 205.75-8.92L205.75-8.92L205.75-8.92Q207.39-13.47 207.39-18.29L207.39-18.29L207.39-18.29Q207.39-25.93 203.52-30.12L203.52-30.12L203.52-30.12Q199.65-34.31 192.10-34.31ZM221.22-13.92L221.22-13.92L221.22-13.92Q221.40-23.11 221.40-29.03L221.40-29.03L221.40-29.03Q221.40-34.94 220.58-40.31L220.58-40.31L220.58-40.31Q220.58-41.22 222.40-41.22L222.40-41.22L222.40-41.22Q224.22-41.22 225.54-40.77L225.54-40.77L225.54-40.77Q226.86-40.31 227.41-39.77L227.41-39.77L227.41-39.77Q228.86-38.31 229.09-38.31L229.09-38.31L229.09-38.31Q229.32-38.31 230.50-39.13L230.50-39.13L230.50-39.13Q234.05-41.41 238.37-41.41L238.37-41.41L238.37-41.41Q242.70-41.41 245.93-39.22L245.93-39.22L245.93-39.22Q249.16-37.04 250.52-33.49L250.52-33.49L250.52-33.49Q252.98-27.39 252.98-20.57L252.98-20.57L252.98-20.57Q252.98-13.83 250.52-7.10L250.52-7.10L250.52-7.10Q249.16-3.46 246.52-1.14L246.52-1.14L246.52-1.14Q243.88 1.18 240.33 1.18L240.33 1.18L240.33 1.18Q233.32 1.18 233.32-6.92L233.32-6.92L233.32-6.92Q233.32-9.10 234.23-9.10L234.23-9.10L234.23-9.10Q234.42-9.10 235.28-8.69L235.28-8.69L235.28-8.69Q236.14-8.28 236.96-8.28L236.96-8.28L236.96-8.28Q243.42-8.28 243.42-21.98L243.42-21.98L243.42-21.98Q243.42-35.67 236.51-35.67L236.51-35.67L236.51-35.67Q234.60-35.67 233.28-34.81L233.28-34.81L233.28-34.81Q231.96-33.94 231.59-33.12L231.59-33.12L231.23-32.21L231.23-32.21Q229.96-24.02 229.96-0.64L229.96-0.64L229.96-0.64Q229.96 9.92 230.37 14.51L230.37 14.51L230.37 14.51Q230.78 19.11 230.78 20.02L230.78 20.02L230.78 20.02Q230.78 20.93 230.23 21.66L230.23 21.66L230.23 21.66Q228.41 24.02 225.32 25.89L225.32 25.89L225.32 25.89Q222.22 27.75 219.86 27.75L219.86 27.75L219.86 27.75Q218.95 27.75 218.95 26.57L218.95 26.57L218.95 26.57Q220.40 17.38 221.22-13.92ZM266.08-23.11L266.08-23.11L266.17-20.84L266.17-20.84Q266.17-20.29 266.90-20.29L266.90-20.29L266.90-20.29Q269.81-20.57 272.00-21.79L272.00-21.79L272.00-21.79Q274.18-23.02 275.27-24.57L275.27-24.57L275.27-24.57Q277.46-27.94 277.64-30.39L277.64-30.39L277.73-31.49L277.73-31.49Q277.73-36.40 273.82-36.40L273.82-36.40L273.82-36.40Q270.91-36.40 269.09-33.85L269.09-33.85L269.09-33.85Q266.08-29.85 266.08-23.11ZM285.92-11.01L285.92-11.01L285.92-11.01Q285.92-7.55 284.51-4.96L284.51-4.96L284.51-4.96Q283.10-2.37 281.33-1.14L281.33-1.14L281.33-1.14Q279.55 0.09 277.19 0.82L277.19 0.82L277.19 0.82Q274.18 1.73 271.45 1.73L271.45 1.73L271.45 1.73Q263.81 1.73 260.17-4.00L260.17-4.00L260.17-4.00Q256.53-9.74 256.53-18.61L256.53-18.61L256.53-18.61Q256.53-27.48 261.03-34.40L261.03-34.40L261.03-34.40Q265.54-41.31 274.55-41.31L274.55-41.31L274.55-41.31Q282.74-41.31 285.65-35.58L285.65-35.58L285.65-35.58Q286.83-33.40 286.83-31.44L286.83-31.44L286.83-31.44Q286.83-29.48 286.65-28.35L286.65-28.35L286.65-28.35Q286.47-27.21 285.38-24.93L285.38-24.93L285.38-24.93Q284.28-22.66 282.46-20.84L282.46-20.84L282.46-20.84Q280.64-19.02 276.73-17.38L276.73-17.38L276.73-17.38Q272.82-15.74 267.54-15.20L267.54-15.20L267.54-15.20Q266.81-15.20 266.81-14.56L266.81-14.56L266.81-14.56Q266.81-13.74 267.40-12.15L267.40-12.15L267.40-12.15Q267.99-10.56 268.72-9.46L268.72-9.46L268.72-9.46Q270.72-6.92 274.64-6.92L274.64-6.92L274.64-6.92Q278.55-6.92 281.28-9.46L281.28-9.46L281.28-9.46Q282.74-10.83 283.65-12.83L283.65-12.83L283.65-12.83Q284.01-13.56 284.60-13.56L284.60-13.56L284.60-13.56Q285.19-13.56 285.56-12.56L285.56-12.56L285.56-12.56Q285.92-11.56 285.92-11.01ZM290.93 0.64L290.93 0.64L290.93 0.64Q292.56-9.19 292.56-22.93L292.56-22.93L292.56-22.93Q292.56-36.67 291.75-40.77L291.75-40.77L291.75-40.77Q291.75-41.95 294.48-41.95L294.48-41.95L294.48-41.95Q298.66-41.95 300.03-38.77L300.03-38.77L300.03-38.77Q300.12-38.49 300.48-38.49L300.48-38.49L300.48-38.49Q300.85-38.49 301.03-38.67L301.03-38.67L301.03-38.67Q303.85-41.59 309.76-41.59L309.76-41.59L309.76-41.59Q315.68-41.59 319.14-38.58L319.14-38.58L319.14-38.58Q322.59-35.58 322.59-29.85L322.59-29.85L322.59-29.85Q322.59-26.39 322.00-20.02L322.00-20.02L322.00-20.02Q321.41-13.65 321.41-10.56L321.41-10.56L321.41-10.56Q321.41-3.19 323.87 0.09L323.87 0.09L323.87 0.09Q324.23 0.55 324.23 1.00L324.23 1.00L324.23 1.00Q324.23 2.18 321.68 2.18L321.68 2.18L321.68 2.18Q310.40 2.18 310.40-7.83L310.40-7.83L310.40-7.83Q310.40-11.65 312.13-18.47L312.13-18.47L312.13-18.47Q313.86-25.30 313.86-28.85L313.86-28.85L313.86-28.85Q313.86-36.13 307.85-36.13L307.85-36.13L307.85-36.13Q304.94-36.13 303.44-34.40L303.44-34.40L303.44-34.40Q301.94-32.67 301.76-30.44L301.76-30.44L301.76-30.44Q301.57-28.21 301.57-22.02L301.57-22.02L301.57-22.02Q301.57-12.56 302.21-5.55L302.21-5.55L302.39-3.55L302.39-3.55Q302.39-1.00 299.07 0.41L299.07 0.41L299.07 0.41Q295.75 1.82 293.34 1.82L293.34 1.82L293.34 1.82Q290.93 1.82 290.93 0.64ZM354.90-12.47L354.90-12.47L354.90-12.47Q354.90-8.55 353.40-5.64L353.40-5.64L353.40-5.64Q351.90-2.73 349.99-1.36L349.99-1.36L349.99-1.36Q348.07 0 345.44 0.82L345.44 0.82L345.44 0.82Q341.98 1.91 339.16 1.91L339.16 1.91L339.16 1.91Q333.24 1.91 329.33-0.41L329.33-0.41L329.33-0.41Q325.42-2.73 325.42-7.83L325.42-7.83L325.42-7.83Q325.42-10.83 327.05-12.74L327.05-12.74L327.05-12.74Q329.60-15.56 333.15-15.56L333.15-15.56L333.15-15.56Q334.24-15.56 334.24-14.56L334.24-14.56L334.24-14.56Q334.24-14.47 333.83-13.15L333.83-13.15L333.83-13.15Q333.42-11.83 333.42-9.83L333.42-9.83L333.42-9.83Q333.42-7.83 335.02-6.28L335.02-6.28L335.02-6.28Q336.61-4.73 338.88-4.73L338.88-4.73L338.88-4.73Q341.16-4.73 342.52-5.51L342.52-5.51L342.52-5.51Q343.89-6.28 344.43-7.46L344.43-7.46L344.43-7.46Q345.25-9.10 345.25-10.56L345.25-10.56L345.25-10.56Q345.25-13.20 342.61-15.11L342.61-15.11L342.61-15.11Q339.98-17.02 336.79-18.11L336.79-18.11L336.79-18.11Q333.61-19.20 330.97-21.75L330.97-21.75L330.97-21.75Q328.33-24.30 328.33-28.12L328.33-28.12L328.33-28.12Q328.33-34.67 332.47-37.95L332.47-37.95L332.47-37.95Q336.61-41.22 343.71-41.22L343.71-41.22L343.71-41.22Q346.80-41.22 350.21-40.36L350.21-40.36L350.21-40.36Q353.63-39.49 353.63-37.45L353.63-37.45L353.63-37.45Q353.63-35.40 352.94-33.67L352.94-33.67L352.94-33.67Q352.26-31.94 351.26-31.94L351.26-31.94L351.26-31.94Q350.71-31.94 350.53-32.35L350.53-32.35L350.53-32.35Q350.35-32.76 349.89-33.31L349.89-33.31L349.89-33.31Q349.44-33.85 347.71-34.72L347.71-34.72L347.71-34.72Q345.98-35.58 344.75-35.58L344.75-35.58L344.75-35.58Q343.52-35.58 343.12-35.54L343.12-35.54L343.12-35.54Q342.71-35.49 341.70-35.26L341.70-35.26L341.70-35.26Q340.70-35.03 339.88-34.58L339.88-34.58L339.88-34.58Q337.79-33.40 337.79-31.12L337.79-31.12L337.79-31.12Q337.79-29.67 338.43-28.98L338.43-28.98L338.43-28.98Q339.07-28.30 339.43-27.94L339.43-27.94L339.43-27.94Q339.79-27.57 340.70-27.07L340.70-27.07L340.70-27.07Q341.61-26.57 341.98-26.39L341.98-26.39L341.98-26.39Q342.34-26.21 343.62-25.62L343.62-25.62L343.62-25.62Q344.89-25.02 345.25-24.84L345.25-24.84L345.25-24.84Q354.90-20.29 354.90-12.47ZM367.46-34.31L367.46-34.31L367.46-34.31Q365.09-34.22 364.05-34.17L364.05-34.17L364.05-34.17Q363.00-34.13 363.00-34.67L363.00-34.67L363.00-34.67Q363.00-35.22 363.54-35.76L363.54-35.76L363.54-35.76Q369.37-41.13 383.20-41.13L383.20-41.13L383.20-41.13Q387.93-41.13 390.66-40.31L390.66-40.31L391.57-40.04L391.57-40.04Q392.66-39.59 392.66-39.04L392.66-39.04L392.66-39.04Q392.66-38.58 392.03-38.31L392.03-38.31L392.03-38.31Q389.57-37.58 387.30-35.99L387.30-35.99L387.30-35.99Q385.02-34.40 385.02-33.76L385.02-33.76L385.57-33.12L385.57-33.12Q388.48-31.49 390.07-27.94L390.07-27.94L390.07-27.94Q391.66-24.39 391.85-21.66L391.85-21.66L392.03-18.84L392.03-18.84Q392.03-9.83 387.02-4.00L387.02-4.00L387.02-4.00Q382.02 1.82 373.37 1.82L373.37 1.82L373.37 1.82Q369.00 1.82 365.82 0.27L365.82 0.27L365.82 0.27Q362.63-1.27 361.13-3.23L361.13-3.23L361.13-3.23Q359.63-5.19 358.72-7.64L358.72-7.64L358.72-7.64Q357.63-11.01 357.63-14.61L357.63-14.61L357.63-14.61Q357.63-18.20 358.86-21.84L358.86-21.84L358.86-21.84Q360.09-25.48 361.68-27.21L361.68-27.21L361.68-27.21Q363.27-28.94 365.27-30.03L365.27-30.03L365.27-30.03Q367.82-31.39 369.37-31.39L369.37-31.39L369.37-31.39Q370.92-31.39 370.92-30.76L370.92-30.76L370.37-29.85L370.37-29.85Q368.37-27.48 367.50-23.66L367.50-23.66L367.50-23.66Q366.64-19.84 366.64-16.88L366.64-16.88L366.64-16.88Q366.64-13.92 367.37-11.01L367.37-11.01L367.37-11.01Q368.09-8.10 369.00-6.69L369.00-6.69L369.00-6.69Q369.91-5.28 371.10-4.55L371.10-4.55L371.10-4.55Q372.83-3.46 374.74-3.46L374.74-3.46L374.74-3.46Q376.65-3.46 378.47-4.96L378.47-4.96L378.47-4.96Q380.29-6.46 381.11-8.92L381.11-8.92L381.11-8.92Q382.75-13.47 382.75-18.29L382.75-18.29L382.75-18.29Q382.75-25.93 378.88-30.12L378.88-30.12L378.88-30.12Q375.01-34.31 367.46-34.31ZM428.97-40.49L428.97-40.49L428.97-40.49Q427.34-30.67 427.34-15.47L427.34-15.47L427.34-15.47Q427.34-4.28 428.25-0.73L428.25-0.73L428.61 0.45L428.61 0.45Q428.61 1.64 426.61 1.64L426.61 1.64L426.61 1.64Q419.60 1.64 418.60-2.27L418.60-2.27L418.60-2.27Q418.51-2.73 418.19-2.73L418.19-2.73L418.19-2.73Q417.87-2.73 417.60-2.37L417.60-2.37L417.60-2.37Q414.78 1.36 408.86 1.36L408.86 1.36L408.86 1.36Q405.59 1.36 402.04-0.27L402.04-0.27L402.04-0.27Q399.85-1.27 398.49-3.78L398.49-3.78L398.49-3.78Q397.12-6.28 397.12-9.92L397.12-9.92L398.49-29.85L398.49-29.85Q398.49-36.13 397.21-38.77L397.21-38.77L397.21-38.77Q396.76-39.77 396.76-40.04L396.76-40.04L396.76-40.04Q396.76-40.59 397.21-40.77L397.21-40.77L397.21-40.77Q398.67-41.22 400.95-41.22L400.95-41.22L400.95-41.22Q409.77-41.22 409.77-33.94L409.77-33.94L409.77-33.94Q409.77-31.67 407.91-23.57L407.91-23.57L407.91-23.57Q406.04-15.47 406.04-12.06L406.04-12.06L406.04-12.06Q406.04-8.64 407.54-6.83L407.54-6.83L407.54-6.83Q409.04-5.00 411.73-5.00L411.73-5.00L411.73-5.00Q414.41-5.00 415.96-6.92L415.96-6.92L415.96-6.92Q417.51-8.83 417.78-10.74L417.78-10.74L418.05-12.65L418.05-12.65Q418.42-15.83 418.42-23.84L418.42-23.84L418.42-23.84Q418.42-31.85 417.92-33.99L417.92-33.99L417.92-33.99Q417.42-36.13 417.42-36.67L417.42-36.67L417.42-36.67Q417.42-38.95 421.06-40.27L421.06-40.27L421.06-40.27Q424.70-41.59 427.61-41.59L427.61-41.59L427.61-41.59Q428.97-41.59 428.97-40.49ZM461.55-31.30L461.10-24.39L461.46-21.20L461.46-21.20Q461.46-19.47 458.18-19.47L458.18-19.47L458.18-19.47Q451.54-19.47 451.54-24.48L451.54-24.48L451.54-24.48Q451.54-25.66 452.18-27.75L452.18-27.75L452.18-27.75Q452.82-29.85 452.82-31.39L452.82-31.39L452.82-31.39Q452.82-32.94 451.91-34.08L451.91-34.08L451.91-34.08Q451.00-35.22 449.27-35.22L449.27-35.22L449.27-35.22Q447.54-35.22 446.31-33.99L446.31-33.99L446.31-33.99Q445.08-32.76 444.81-31.49L444.81-31.49L444.44-30.21L444.44-30.21Q443.90-27.39 443.90-20.79L443.90-20.79L443.90-20.79Q443.90-14.20 444.08-10.42L444.08-10.42L444.08-10.42Q444.26-6.64 444.44-5.23L444.44-5.23L444.44-5.23Q444.63-3.82 444.63-3.55L444.63-3.55L444.63-3.55Q444.63-1.27 441.80 0.14L441.80 0.14L441.80 0.14Q438.98 1.55 436.16 1.55L436.16 1.55L436.16 1.55Q433.34 1.55 433.34 0.36L433.34 0.36L433.80-2.46L433.80-2.46Q435.07-10.37 435.07-23.11L435.07-23.11L435.07-23.11Q435.07-35.85 434.16-40.40L434.16-40.40L434.16-40.40Q434.16-41.50 436.07-41.50L436.07-41.50L436.07-41.50Q440.99-41.50 442.62-38.13L442.62-38.13L442.62-38.13Q442.71-37.77 442.94-37.77L442.94-37.77L442.94-37.77Q443.17-37.77 444.17-38.58L444.17-38.58L444.17-38.58Q447.17-41.04 451.27-41.04L451.27-41.04L451.27-41.04Q453.82-41.04 456.36-40.04L456.36-40.04L456.36-40.04Q461.55-37.95 461.55-31.30L461.55-31.30ZM495.40-10.46L495.40-10.46L495.40-10.46Q495.40-5.28 491.26-1.87L491.26-1.87L491.26-1.87Q487.12 1.55 481.39 1.55L481.39 1.55L481.39 1.55Q473.02 1.55 469.10-3.50L469.10-3.50L469.10-3.50Q465.19-8.55 465.19-17.20L465.19-17.20L465.19-17.20Q465.19-26.39 469.29-33.49L469.29-33.49L469.29-33.49Q471.29-37.13 475.02-39.22L475.02-39.22L475.02-39.22Q478.75-41.31 483.76-41.31L483.76-41.31L483.76-41.31Q491.31-41.31 494.40-36.22L494.40-36.22L494.40-36.22Q495.68-34.13 495.68-31.30L495.68-31.30L495.68-31.30Q495.68-26.94 492.04-24.75L492.04-24.75L492.04-24.75Q490.58-23.93 489.35-23.93L489.35-23.93L489.35-23.93Q488.12-23.93 487.35-24.07L487.35-24.07L487.35-24.07Q486.58-24.21 485.30-25.30L485.30-25.30L485.30-25.30Q484.03-26.39 484.03-28.30L484.03-28.30L484.03-28.30Q484.12-29.30 485.58-29.94L485.58-29.94L485.58-29.94Q486.94-30.76 486.94-32.85L486.94-32.85L486.94-32.85Q486.94-36.40 482.57-36.40L482.57-36.40L482.57-36.40Q481.48-36.40 479.98-35.44L479.98-35.44L479.98-35.44Q478.48-34.49 477.48-32.99L477.48-32.99L477.48-32.99Q476.48-31.49 475.61-28.26L475.61-28.26L475.61-28.26Q474.75-25.02 474.75-22.07L474.75-22.07L474.75-22.07Q474.75-19.11 474.97-17.61L474.97-17.61L474.97-17.61Q475.20-16.11 475.98-13.51L475.98-13.51L475.98-13.51Q476.75-10.92 478.89-9.28L478.89-9.28L478.89-9.28Q481.03-7.64 484.21-7.64L484.21-7.64L484.21-7.64Q488.03-7.64 490.94-10.83L490.94-10.83L490.94-10.83Q492.13-12.10 492.86-13.92L492.86-13.92L492.86-13.92Q493.22-14.65 493.77-14.65L493.77-14.65L493.77-14.65Q494.58-14.65 494.99-13.15L494.99-13.15L494.99-13.15Q495.40-11.65 495.40-10.46ZM508.87-23.11L508.87-23.11L508.96-20.84L508.96-20.84Q508.96-20.29 509.69-20.29L509.69-20.29L509.69-20.29Q512.60-20.57 514.79-21.79L514.79-21.79L514.79-21.79Q516.97-23.02 518.06-24.57L518.06-24.57L518.06-24.57Q520.25-27.94 520.43-30.39L520.43-30.39L520.52-31.49L520.52-31.49Q520.52-36.40 516.61-36.40L516.61-36.40L516.61-36.40Q513.69-36.40 511.87-33.85L511.87-33.85L511.87-33.85Q508.87-29.85 508.87-23.11ZM528.71-11.01L528.71-11.01L528.71-11.01Q528.71-7.55 527.30-4.96L527.30-4.96L527.30-4.96Q525.89-2.37 524.11-1.14L524.11-1.14L524.11-1.14Q522.34 0.09 519.97 0.82L519.97 0.82L519.97 0.82Q516.97 1.73 514.24 1.73L514.24 1.73L514.24 1.73Q506.60 1.73 502.96-4.00L502.96-4.00L502.96-4.00Q499.32-9.74 499.32-18.61L499.32-18.61L499.32-18.61Q499.32-27.48 503.82-34.40L503.82-34.40L503.82-34.40Q508.33-41.31 517.33-41.31L517.33-41.31L517.33-41.31Q525.52-41.31 528.44-35.58L528.44-35.58L528.44-35.58Q529.62-33.40 529.62-31.44L529.62-31.44L529.62-31.44Q529.62-29.48 529.44-28.35L529.44-28.35L529.44-28.35Q529.26-27.21 528.16-24.93L528.16-24.93L528.16-24.93Q527.07-22.66 525.25-20.84L525.25-20.84L525.25-20.84Q523.43-19.02 519.52-17.38L519.52-17.38L519.52-17.38Q515.61-15.74 510.33-15.20L510.33-15.20L510.33-15.20Q509.60-15.20 509.60-14.56L509.60-14.56L509.60-14.56Q509.60-13.74 510.19-12.15L510.19-12.15L510.19-12.15Q510.78-10.56 511.51-9.46L511.51-9.46L511.51-9.46Q513.51-6.92 517.43-6.92L517.43-6.92L517.43-6.92Q521.34-6.92 524.07-9.46L524.07-9.46L524.07-9.46Q525.52-10.83 526.43-12.83L526.43-12.83L526.43-12.83Q526.80-13.56 527.39-13.56L527.39-13.56L527.39-13.56Q527.98-13.56 528.35-12.56L528.35-12.56L528.35-12.56Q528.71-11.56 528.71-11.01Z" fill="url(#editing-shiny-gradient)"></path></g></g><g filter="url(#editing-shiny2)"><g transform="translate(-16.629962682724, 121.31500053405762)"><path d="M17.29-40.31L17.29-40.31L17.29-40.31Q17.29-12.10 18.56-3.37L18.56-3.37L18.56-3.37Q18.56-1.18 14.38 0.23L14.38 0.23L14.38 0.23Q10.19 1.64 7.46 1.64L7.46 1.64L7.46 1.64Q4.73 1.64 4.73 0.82L4.73 0.82L4.73 0.82Q4.73 0.27 5.00-0.55L5.00-0.55L5.00-0.55Q6.73-4.37 6.73-31.30L6.73-31.30L6.73-31.30Q6.73-56.78 4.55-59.60L4.55-59.60L4.19-60.15L4.19-60.15Q3.64-60.61 3.64-61.29L3.64-61.29L3.64-61.29Q3.64-61.97 4.64-62.43L4.64-62.43L4.64-62.43Q6.01-63.24 9.51-64.06L9.51-64.06L9.51-64.06Q13.01-64.88 15.83-64.88L15.83-64.88L15.83-64.88Q18.66-64.88 18.66-63.61L18.66-63.61L18.66-63.34L18.66-63.34Q17.56-53.87 17.29-40.31ZM53.69-52.05L53.69-52.05L53.14-18.66L53.14-18.66Q53.14-3.00 54.14 0.09L54.14 0.09L54.14 0.09Q54.42 0.64 54.42 1.18L54.42 1.18L54.42 1.18Q54.42 2.27 51.78 2.27L51.78 2.27L51.78 2.27Q49.14 2.27 45.91 0.96L45.91 0.96L45.91 0.96Q42.68-0.36 42.68-2.46L42.68-2.46L42.68-2.46Q44.50-15.20 44.50-36.49L44.50-36.49L44.13-50.41L44.13-50.41Q43.95-52.96 43.09-54.78L43.09-54.78L43.09-54.78Q42.22-56.60 41.40-57.15L41.40-57.15L40.68-57.60L40.68-57.60Q40.04-57.97 40.04-58.42L40.04-58.42L40.04-58.42Q40.04-59.70 44.00-61.56L44.00-61.56L44.00-61.56Q47.96-63.43 51.69-63.43L51.69-63.43L51.69-63.43Q53.14-63.43 53.33-62.43L53.33-62.43L53.33-62.43Q53.69-60.06 53.69-52.05ZM68.80-34.31L68.80-34.31L68.80-34.31Q66.43-34.22 65.38-34.17L65.38-34.17L65.38-34.17Q64.34-34.13 64.34-34.67L64.34-34.67L64.34-34.67Q64.34-35.22 64.88-35.76L64.88-35.76L64.88-35.76Q70.71-41.13 84.54-41.13L84.54-41.13L84.54-41.13Q89.27-41.13 92.00-40.31L92.00-40.31L92.91-40.04L92.91-40.04Q94.00-39.59 94.00-39.04L94.00-39.04L94.00-39.04Q94.00-38.58 93.37-38.31L93.37-38.31L93.37-38.31Q90.91-37.58 88.63-35.99L88.63-35.99L88.63-35.99Q86.36-34.40 86.36-33.76L86.36-33.76L86.91-33.12L86.91-33.12Q89.82-31.49 91.41-27.94L91.41-27.94L91.41-27.94Q93.00-24.39 93.18-21.66L93.18-21.66L93.37-18.84L93.37-18.84Q93.37-9.83 88.36-4.00L88.36-4.00L88.36-4.00Q83.36 1.82 74.71 1.82L74.71 1.82L74.71 1.82Q70.34 1.82 67.16 0.27L67.16 0.27L67.16 0.27Q63.97-1.27 62.47-3.23L62.47-3.23L62.47-3.23Q60.97-5.19 60.06-7.64L60.06-7.64L60.06-7.64Q58.97-11.01 58.97-14.61L58.97-14.61L58.97-14.61Q58.97-18.20 60.20-21.84L60.20-21.84L60.20-21.84Q61.42-25.48 63.02-27.21L63.02-27.21L63.02-27.21Q64.61-28.94 66.61-30.03L66.61-30.03L66.61-30.03Q69.16-31.39 70.71-31.39L70.71-31.39L70.71-31.39Q72.25-31.39 72.25-30.76L72.25-30.76L71.71-29.85L71.71-29.85Q69.71-27.48 68.84-23.66L68.84-23.66L68.84-23.66Q67.98-19.84 67.98-16.88L67.98-16.88L67.98-16.88Q67.98-13.92 68.70-11.01L68.70-11.01L68.70-11.01Q69.43-8.10 70.34-6.69L70.34-6.69L70.34-6.69Q71.25-5.28 72.44-4.55L72.44-4.55L72.44-4.55Q74.16-3.46 76.08-3.46L76.08-3.46L76.08-3.46Q77.99-3.46 79.81-4.96L79.81-4.96L79.81-4.96Q81.63-6.46 82.45-8.92L82.45-8.92L82.45-8.92Q84.08-13.47 84.08-18.29L84.08-18.29L84.08-18.29Q84.08-25.93 80.22-30.12L80.22-30.12L80.22-30.12Q76.35-34.31 68.80-34.31ZM118.62-39.31L118.62-39.31L118.62-39.31Q122.49-41.22 126.31-41.22L126.31-41.22L126.31-41.22Q130.13-41.22 130.13-33.31L130.13-33.31L130.13-33.31Q130.13-27.48 127.99-21.48L127.99-21.48L127.99-21.48Q125.85-15.47 122.67-10.92L122.67-10.92L122.67-10.92Q116.12-1.36 110.84 1.82L110.84 1.82L110.84 1.82Q109.56 2.55 108.93 2.55L108.93 2.55L108.93 2.55Q108.29 2.55 107.61 1.18L107.61 1.18L107.61 1.18Q106.92-0.18 105.51-4.82L105.51-4.82L105.51-4.82Q104.10-9.46 103.19-13.10L103.19-13.10L102.38-16.84L102.38-16.84Q100.55-24.84 98.83-29.62L98.83-29.62L98.83-29.62Q97.10-34.40 96.28-35.13L96.28-35.13L95.37-35.95L95.37-35.95Q94.46-36.40 94.46-37.04L94.46-37.04L94.91-37.86L94.91-37.86Q96.10-38.95 98.87-40.09L98.87-40.09L98.87-40.09Q101.65-41.22 105.01-41.22L105.01-41.22L105.01-41.22Q106.56-41.22 106.92-39.49L106.92-39.49L106.92-39.49Q108.29-35.31 109.29-29.67L109.29-29.67L109.29-29.67Q110.29-24.02 111.98-16.93L111.98-16.93L111.98-16.93Q113.66-9.83 114.75-9.74L114.75-9.74L114.75-9.74Q115.30-9.74 115.98-10.56L115.98-10.56L115.98-10.56Q116.66-11.38 117.62-12.74L117.62-12.74L117.62-12.74Q118.57-14.11 119.98-18.02L119.98-18.02L119.98-18.02Q121.39-21.93 121.39-24.71L121.39-24.71L121.39-24.71Q121.39-27.48 121.17-28.98L121.17-28.98L121.17-28.98Q120.94-30.48 119.57-32.49L119.57-32.49L119.57-32.49Q118.21-34.49 116.48-34.81L116.48-34.81L116.48-34.81Q114.75-35.13 114.75-35.95L114.75-35.95L114.75-35.95Q114.75-37.40 118.62-39.31ZM141.96-23.11L141.96-23.11L142.05-20.84L142.05-20.84Q142.05-20.29 142.78-20.29L142.78-20.29L142.78-20.29Q145.69-20.57 147.87-21.79L147.87-21.79L147.87-21.79Q150.06-23.02 151.15-24.57L151.15-24.57L151.15-24.57Q153.33-27.94 153.52-30.39L153.52-30.39L153.61-31.49L153.61-31.49Q153.61-36.40 149.69-36.40L149.69-36.40L149.69-36.40Q146.78-36.40 144.96-33.85L144.96-33.85L144.96-33.85Q141.96-29.85 141.96-23.11ZM161.80-11.01L161.80-11.01L161.80-11.01Q161.80-7.55 160.39-4.96L160.39-4.96L160.39-4.96Q158.98-2.37 157.20-1.14L157.20-1.14L157.20-1.14Q155.43 0.09 153.06 0.82L153.06 0.82L153.06 0.82Q150.06 1.73 147.33 1.73L147.33 1.73L147.33 1.73Q139.68 1.73 136.04-4.00L136.04-4.00L136.04-4.00Q132.40-9.74 132.40-18.61L132.40-18.61L132.40-18.61Q132.40-27.48 136.91-34.40L136.91-34.40L136.91-34.40Q141.41-41.31 150.42-41.31L150.42-41.31L150.42-41.31Q158.61-41.31 161.52-35.58L161.52-35.58L161.52-35.58Q162.71-33.40 162.71-31.44L162.71-31.44L162.71-31.44Q162.71-29.48 162.53-28.35L162.53-28.35L162.53-28.35Q162.34-27.21 161.25-24.93L161.25-24.93L161.25-24.93Q160.16-22.66 158.34-20.84L158.34-20.84L158.34-20.84Q156.52-19.02 152.61-17.38L152.61-17.38L152.61-17.38Q148.69-15.74 143.42-15.20L143.42-15.20L143.42-15.20Q142.69-15.20 142.69-14.56L142.69-14.56L142.69-14.56Q142.69-13.74 143.28-12.15L143.28-12.15L143.28-12.15Q143.87-10.56 144.60-9.46L144.60-9.46L144.60-9.46Q146.60-6.92 150.51-6.92L150.51-6.92L150.51-6.92Q154.43-6.92 157.16-9.46L157.16-9.46L157.16-9.46Q158.61-10.83 159.52-12.83L159.52-12.83L159.52-12.83Q159.89-13.56 160.48-13.56L160.48-13.56L160.48-13.56Q161.07-13.56 161.43-12.56L161.43-12.56L161.43-12.56Q161.80-11.56 161.80-11.01ZM192.10-34.31L192.10-34.31L192.10-34.31Q189.73-34.22 188.69-34.17L188.69-34.17L188.69-34.17Q187.64-34.13 187.64-34.67L187.64-34.67L187.64-34.67Q187.64-35.22 188.19-35.76L188.19-35.76L188.19-35.76Q194.01-41.13 207.84-41.13L207.84-41.13L207.84-41.13Q212.58-41.13 215.31-40.31L215.31-40.31L216.22-40.04L216.22-40.04Q217.31-39.59 217.31-39.04L217.31-39.04L217.31-39.04Q217.31-38.58 216.67-38.31L216.67-38.31L216.67-38.31Q214.21-37.58 211.94-35.99L211.94-35.99L211.94-35.99Q209.66-34.40 209.66-33.76L209.66-33.76L210.21-33.12L210.21-33.12Q213.12-31.49 214.71-27.94L214.71-27.94L214.71-27.94Q216.31-24.39 216.49-21.66L216.49-21.66L216.67-18.84L216.67-18.84Q216.67-9.83 211.67-4.00L211.67-4.00L211.67-4.00Q206.66 1.82 198.02 1.82L198.02 1.82L198.02 1.82Q193.65 1.82 190.46 0.27L190.46 0.27L190.46 0.27Q187.28-1.27 185.78-3.23L185.78-3.23L185.78-3.23Q184.27-5.19 183.36-7.64L183.36-7.64L183.36-7.64Q182.27-11.01 182.27-14.61L182.27-14.61L182.27-14.61Q182.27-18.20 183.50-21.84L183.50-21.84L183.50-21.84Q184.73-25.48 186.32-27.21L186.32-27.21L186.32-27.21Q187.91-28.94 189.92-30.03L189.92-30.03L189.92-30.03Q192.46-31.39 194.01-31.39L194.01-31.39L194.01-31.39Q195.56-31.39 195.56-30.76L195.56-30.76L195.01-29.85L195.01-29.85Q193.01-27.48 192.15-23.66L192.15-23.66L192.15-23.66Q191.28-19.84 191.28-16.88L191.28-16.88L191.28-16.88Q191.28-13.92 192.01-11.01L192.01-11.01L192.01-11.01Q192.74-8.10 193.65-6.69L193.65-6.69L193.65-6.69Q194.56-5.28 195.74-4.55L195.74-4.55L195.74-4.55Q197.47-3.46 199.38-3.46L199.38-3.46L199.38-3.46Q201.29-3.46 203.11-4.96L203.11-4.96L203.11-4.96Q204.93-6.46 205.75-8.92L205.75-8.92L205.75-8.92Q207.39-13.47 207.39-18.29L207.39-18.29L207.39-18.29Q207.39-25.93 203.52-30.12L203.52-30.12L203.52-30.12Q199.65-34.31 192.10-34.31ZM221.22-13.92L221.22-13.92L221.22-13.92Q221.40-23.11 221.40-29.03L221.40-29.03L221.40-29.03Q221.40-34.94 220.58-40.31L220.58-40.31L220.58-40.31Q220.58-41.22 222.40-41.22L222.40-41.22L222.40-41.22Q224.22-41.22 225.54-40.77L225.54-40.77L225.54-40.77Q226.86-40.31 227.41-39.77L227.41-39.77L227.41-39.77Q228.86-38.31 229.09-38.31L229.09-38.31L229.09-38.31Q229.32-38.31 230.50-39.13L230.50-39.13L230.50-39.13Q234.05-41.41 238.37-41.41L238.37-41.41L238.37-41.41Q242.70-41.41 245.93-39.22L245.93-39.22L245.93-39.22Q249.16-37.04 250.52-33.49L250.52-33.49L250.52-33.49Q252.98-27.39 252.98-20.57L252.98-20.57L252.98-20.57Q252.98-13.83 250.52-7.10L250.52-7.10L250.52-7.10Q249.16-3.46 246.52-1.14L246.52-1.14L246.52-1.14Q243.88 1.18 240.33 1.18L240.33 1.18L240.33 1.18Q233.32 1.18 233.32-6.92L233.32-6.92L233.32-6.92Q233.32-9.10 234.23-9.10L234.23-9.10L234.23-9.10Q234.42-9.10 235.28-8.69L235.28-8.69L235.28-8.69Q236.14-8.28 236.96-8.28L236.96-8.28L236.96-8.28Q243.42-8.28 243.42-21.98L243.42-21.98L243.42-21.98Q243.42-35.67 236.51-35.67L236.51-35.67L236.51-35.67Q234.60-35.67 233.28-34.81L233.28-34.81L233.28-34.81Q231.96-33.94 231.59-33.12L231.59-33.12L231.23-32.21L231.23-32.21Q229.96-24.02 229.96-0.64L229.96-0.64L229.96-0.64Q229.96 9.92 230.37 14.51L230.37 14.51L230.37 14.51Q230.78 19.11 230.78 20.02L230.78 20.02L230.78 20.02Q230.78 20.93 230.23 21.66L230.23 21.66L230.23 21.66Q228.41 24.02 225.32 25.89L225.32 25.89L225.32 25.89Q222.22 27.75 219.86 27.75L219.86 27.75L219.86 27.75Q218.95 27.75 218.95 26.57L218.95 26.57L218.95 26.57Q220.40 17.38 221.22-13.92ZM266.08-23.11L266.08-23.11L266.17-20.84L266.17-20.84Q266.17-20.29 266.90-20.29L266.90-20.29L266.90-20.29Q269.81-20.57 272.00-21.79L272.00-21.79L272.00-21.79Q274.18-23.02 275.27-24.57L275.27-24.57L275.27-24.57Q277.46-27.94 277.64-30.39L277.64-30.39L277.73-31.49L277.73-31.49Q277.73-36.40 273.82-36.40L273.82-36.40L273.82-36.40Q270.91-36.40 269.09-33.85L269.09-33.85L269.09-33.85Q266.08-29.85 266.08-23.11ZM285.92-11.01L285.92-11.01L285.92-11.01Q285.92-7.55 284.51-4.96L284.51-4.96L284.51-4.96Q283.10-2.37 281.33-1.14L281.33-1.14L281.33-1.14Q279.55 0.09 277.19 0.82L277.19 0.82L277.19 0.82Q274.18 1.73 271.45 1.73L271.45 1.73L271.45 1.73Q263.81 1.73 260.17-4.00L260.17-4.00L260.17-4.00Q256.53-9.74 256.53-18.61L256.53-18.61L256.53-18.61Q256.53-27.48 261.03-34.40L261.03-34.40L261.03-34.40Q265.54-41.31 274.55-41.31L274.55-41.31L274.55-41.31Q282.74-41.31 285.65-35.58L285.65-35.58L285.65-35.58Q286.83-33.40 286.83-31.44L286.83-31.44L286.83-31.44Q286.83-29.48 286.65-28.35L286.65-28.35L286.65-28.35Q286.47-27.21 285.38-24.93L285.38-24.93L285.38-24.93Q284.28-22.66 282.46-20.84L282.46-20.84L282.46-20.84Q280.64-19.02 276.73-17.38L276.73-17.38L276.73-17.38Q272.82-15.74 267.54-15.20L267.54-15.20L267.54-15.20Q266.81-15.20 266.81-14.56L266.81-14.56L266.81-14.56Q266.81-13.74 267.40-12.15L267.40-12.15L267.40-12.15Q267.99-10.56 268.72-9.46L268.72-9.46L268.72-9.46Q270.72-6.92 274.64-6.92L274.64-6.92L274.64-6.92Q278.55-6.92 281.28-9.46L281.28-9.46L281.28-9.46Q282.74-10.83 283.65-12.83L283.65-12.83L283.65-12.83Q284.01-13.56 284.60-13.56L284.60-13.56L284.60-13.56Q285.19-13.56 285.56-12.56L285.56-12.56L285.56-12.56Q285.92-11.56 285.92-11.01ZM290.93 0.64L290.93 0.64L290.93 0.64Q292.56-9.19 292.56-22.93L292.56-22.93L292.56-22.93Q292.56-36.67 291.75-40.77L291.75-40.77L291.75-40.77Q291.75-41.95 294.48-41.95L294.48-41.95L294.48-41.95Q298.66-41.95 300.03-38.77L300.03-38.77L300.03-38.77Q300.12-38.49 300.48-38.49L300.48-38.49L300.48-38.49Q300.85-38.49 301.03-38.67L301.03-38.67L301.03-38.67Q303.85-41.59 309.76-41.59L309.76-41.59L309.76-41.59Q315.68-41.59 319.14-38.58L319.14-38.58L319.14-38.58Q322.59-35.58 322.59-29.85L322.59-29.85L322.59-29.85Q322.59-26.39 322.00-20.02L322.00-20.02L322.00-20.02Q321.41-13.65 321.41-10.56L321.41-10.56L321.41-10.56Q321.41-3.19 323.87 0.09L323.87 0.09L323.87 0.09Q324.23 0.55 324.23 1.00L324.23 1.00L324.23 1.00Q324.23 2.18 321.68 2.18L321.68 2.18L321.68 2.18Q310.40 2.18 310.40-7.83L310.40-7.83L310.40-7.83Q310.40-11.65 312.13-18.47L312.13-18.47L312.13-18.47Q313.86-25.30 313.86-28.85L313.86-28.85L313.86-28.85Q313.86-36.13 307.85-36.13L307.85-36.13L307.85-36.13Q304.94-36.13 303.44-34.40L303.44-34.40L303.44-34.40Q301.94-32.67 301.76-30.44L301.76-30.44L301.76-30.44Q301.57-28.21 301.57-22.02L301.57-22.02L301.57-22.02Q301.57-12.56 302.21-5.55L302.21-5.55L302.39-3.55L302.39-3.55Q302.39-1.00 299.07 0.41L299.07 0.41L299.07 0.41Q295.75 1.82 293.34 1.82L293.34 1.82L293.34 1.82Q290.93 1.82 290.93 0.64ZM354.90-12.47L354.90-12.47L354.90-12.47Q354.90-8.55 353.40-5.64L353.40-5.64L353.40-5.64Q351.90-2.73 349.99-1.36L349.99-1.36L349.99-1.36Q348.07 0 345.44 0.82L345.44 0.82L345.44 0.82Q341.98 1.91 339.16 1.91L339.16 1.91L339.16 1.91Q333.24 1.91 329.33-0.41L329.33-0.41L329.33-0.41Q325.42-2.73 325.42-7.83L325.42-7.83L325.42-7.83Q325.42-10.83 327.05-12.74L327.05-12.74L327.05-12.74Q329.60-15.56 333.15-15.56L333.15-15.56L333.15-15.56Q334.24-15.56 334.24-14.56L334.24-14.56L334.24-14.56Q334.24-14.47 333.83-13.15L333.83-13.15L333.83-13.15Q333.42-11.83 333.42-9.83L333.42-9.83L333.42-9.83Q333.42-7.83 335.02-6.28L335.02-6.28L335.02-6.28Q336.61-4.73 338.88-4.73L338.88-4.73L338.88-4.73Q341.16-4.73 342.52-5.51L342.52-5.51L342.52-5.51Q343.89-6.28 344.43-7.46L344.43-7.46L344.43-7.46Q345.25-9.10 345.25-10.56L345.25-10.56L345.25-10.56Q345.25-13.20 342.61-15.11L342.61-15.11L342.61-15.11Q339.98-17.02 336.79-18.11L336.79-18.11L336.79-18.11Q333.61-19.20 330.97-21.75L330.97-21.75L330.97-21.75Q328.33-24.30 328.33-28.12L328.33-28.12L328.33-28.12Q328.33-34.67 332.47-37.95L332.47-37.95L332.47-37.95Q336.61-41.22 343.71-41.22L343.71-41.22L343.71-41.22Q346.80-41.22 350.21-40.36L350.21-40.36L350.21-40.36Q353.63-39.49 353.63-37.45L353.63-37.45L353.63-37.45Q353.63-35.40 352.94-33.67L352.94-33.67L352.94-33.67Q352.26-31.94 351.26-31.94L351.26-31.94L351.26-31.94Q350.71-31.94 350.53-32.35L350.53-32.35L350.53-32.35Q350.35-32.76 349.89-33.31L349.89-33.31L349.89-33.31Q349.44-33.85 347.71-34.72L347.71-34.72L347.71-34.72Q345.98-35.58 344.75-35.58L344.75-35.58L344.75-35.58Q343.52-35.58 343.12-35.54L343.12-35.54L343.12-35.54Q342.71-35.49 341.70-35.26L341.70-35.26L341.70-35.26Q340.70-35.03 339.88-34.58L339.88-34.58L339.88-34.58Q337.79-33.40 337.79-31.12L337.79-31.12L337.79-31.12Q337.79-29.67 338.43-28.98L338.43-28.98L338.43-28.98Q339.07-28.30 339.43-27.94L339.43-27.94L339.43-27.94Q339.79-27.57 340.70-27.07L340.70-27.07L340.70-27.07Q341.61-26.57 341.98-26.39L341.98-26.39L341.98-26.39Q342.34-26.21 343.62-25.62L343.62-25.62L343.62-25.62Q344.89-25.02 345.25-24.84L345.25-24.84L345.25-24.84Q354.90-20.29 354.90-12.47ZM367.46-34.31L367.46-34.31L367.46-34.31Q365.09-34.22 364.05-34.17L364.05-34.17L364.05-34.17Q363.00-34.13 363.00-34.67L363.00-34.67L363.00-34.67Q363.00-35.22 363.54-35.76L363.54-35.76L363.54-35.76Q369.37-41.13 383.20-41.13L383.20-41.13L383.20-41.13Q387.93-41.13 390.66-40.31L390.66-40.31L391.57-40.04L391.57-40.04Q392.66-39.59 392.66-39.04L392.66-39.04L392.66-39.04Q392.66-38.58 392.03-38.31L392.03-38.31L392.03-38.31Q389.57-37.58 387.30-35.99L387.30-35.99L387.30-35.99Q385.02-34.40 385.02-33.76L385.02-33.76L385.57-33.12L385.57-33.12Q388.48-31.49 390.07-27.94L390.07-27.94L390.07-27.94Q391.66-24.39 391.85-21.66L391.85-21.66L392.03-18.84L392.03-18.84Q392.03-9.83 387.02-4.00L387.02-4.00L387.02-4.00Q382.02 1.82 373.37 1.82L373.37 1.82L373.37 1.82Q369.00 1.82 365.82 0.27L365.82 0.27L365.82 0.27Q362.63-1.27 361.13-3.23L361.13-3.23L361.13-3.23Q359.63-5.19 358.72-7.64L358.72-7.64L358.72-7.64Q357.63-11.01 357.63-14.61L357.63-14.61L357.63-14.61Q357.63-18.20 358.86-21.84L358.86-21.84L358.86-21.84Q360.09-25.48 361.68-27.21L361.68-27.21L361.68-27.21Q363.27-28.94 365.27-30.03L365.27-30.03L365.27-30.03Q367.82-31.39 369.37-31.39L369.37-31.39L369.37-31.39Q370.92-31.39 370.92-30.76L370.92-30.76L370.37-29.85L370.37-29.85Q368.37-27.48 367.50-23.66L367.50-23.66L367.50-23.66Q366.64-19.84 366.64-16.88L366.64-16.88L366.64-16.88Q366.64-13.92 367.37-11.01L367.37-11.01L367.37-11.01Q368.09-8.10 369.00-6.69L369.00-6.69L369.00-6.69Q369.91-5.28 371.10-4.55L371.10-4.55L371.10-4.55Q372.83-3.46 374.74-3.46L374.74-3.46L374.74-3.46Q376.65-3.46 378.47-4.96L378.47-4.96L378.47-4.96Q380.29-6.46 381.11-8.92L381.11-8.92L381.11-8.92Q382.75-13.47 382.75-18.29L382.75-18.29L382.75-18.29Q382.75-25.93 378.88-30.12L378.88-30.12L378.88-30.12Q375.01-34.31 367.46-34.31ZM428.97-40.49L428.97-40.49L428.97-40.49Q427.34-30.67 427.34-15.47L427.34-15.47L427.34-15.47Q427.34-4.28 428.25-0.73L428.25-0.73L428.61 0.45L428.61 0.45Q428.61 1.64 426.61 1.64L426.61 1.64L426.61 1.64Q419.60 1.64 418.60-2.27L418.60-2.27L418.60-2.27Q418.51-2.73 418.19-2.73L418.19-2.73L418.19-2.73Q417.87-2.73 417.60-2.37L417.60-2.37L417.60-2.37Q414.78 1.36 408.86 1.36L408.86 1.36L408.86 1.36Q405.59 1.36 402.04-0.27L402.04-0.27L402.04-0.27Q399.85-1.27 398.49-3.78L398.49-3.78L398.49-3.78Q397.12-6.28 397.12-9.92L397.12-9.92L398.49-29.85L398.49-29.85Q398.49-36.13 397.21-38.77L397.21-38.77L397.21-38.77Q396.76-39.77 396.76-40.04L396.76-40.04L396.76-40.04Q396.76-40.59 397.21-40.77L397.21-40.77L397.21-40.77Q398.67-41.22 400.95-41.22L400.95-41.22L400.95-41.22Q409.77-41.22 409.77-33.94L409.77-33.94L409.77-33.94Q409.77-31.67 407.91-23.57L407.91-23.57L407.91-23.57Q406.04-15.47 406.04-12.06L406.04-12.06L406.04-12.06Q406.04-8.64 407.54-6.83L407.54-6.83L407.54-6.83Q409.04-5.00 411.73-5.00L411.73-5.00L411.73-5.00Q414.41-5.00 415.96-6.92L415.96-6.92L415.96-6.92Q417.51-8.83 417.78-10.74L417.78-10.74L418.05-12.65L418.05-12.65Q418.42-15.83 418.42-23.84L418.42-23.84L418.42-23.84Q418.42-31.85 417.92-33.99L417.92-33.99L417.92-33.99Q417.42-36.13 417.42-36.67L417.42-36.67L417.42-36.67Q417.42-38.95 421.06-40.27L421.06-40.27L421.06-40.27Q424.70-41.59 427.61-41.59L427.61-41.59L427.61-41.59Q428.97-41.59 428.97-40.49ZM461.55-31.30L461.10-24.39L461.46-21.20L461.46-21.20Q461.46-19.47 458.18-19.47L458.18-19.47L458.18-19.47Q451.54-19.47 451.54-24.48L451.54-24.48L451.54-24.48Q451.54-25.66 452.18-27.75L452.18-27.75L452.18-27.75Q452.82-29.85 452.82-31.39L452.82-31.39L452.82-31.39Q452.82-32.94 451.91-34.08L451.91-34.08L451.91-34.08Q451.00-35.22 449.27-35.22L449.27-35.22L449.27-35.22Q447.54-35.22 446.31-33.99L446.31-33.99L446.31-33.99Q445.08-32.76 444.81-31.49L444.81-31.49L444.44-30.21L444.44-30.21Q443.90-27.39 443.90-20.79L443.90-20.79L443.90-20.79Q443.90-14.20 444.08-10.42L444.08-10.42L444.08-10.42Q444.26-6.64 444.44-5.23L444.44-5.23L444.44-5.23Q444.63-3.82 444.63-3.55L444.63-3.55L444.63-3.55Q444.63-1.27 441.80 0.14L441.80 0.14L441.80 0.14Q438.98 1.55 436.16 1.55L436.16 1.55L436.16 1.55Q433.34 1.55 433.34 0.36L433.34 0.36L433.80-2.46L433.80-2.46Q435.07-10.37 435.07-23.11L435.07-23.11L435.07-23.11Q435.07-35.85 434.16-40.40L434.16-40.40L434.16-40.40Q434.16-41.50 436.07-41.50L436.07-41.50L436.07-41.50Q440.99-41.50 442.62-38.13L442.62-38.13L442.62-38.13Q442.71-37.77 442.94-37.77L442.94-37.77L442.94-37.77Q443.17-37.77 444.17-38.58L444.17-38.58L444.17-38.58Q447.17-41.04 451.27-41.04L451.27-41.04L451.27-41.04Q453.82-41.04 456.36-40.04L456.36-40.04L456.36-40.04Q461.55-37.95 461.55-31.30L461.55-31.30ZM495.40-10.46L495.40-10.46L495.40-10.46Q495.40-5.28 491.26-1.87L491.26-1.87L491.26-1.87Q487.12 1.55 481.39 1.55L481.39 1.55L481.39 1.55Q473.02 1.55 469.10-3.50L469.10-3.50L469.10-3.50Q465.19-8.55 465.19-17.20L465.19-17.20L465.19-17.20Q465.19-26.39 469.29-33.49L469.29-33.49L469.29-33.49Q471.29-37.13 475.02-39.22L475.02-39.22L475.02-39.22Q478.75-41.31 483.76-41.31L483.76-41.31L483.76-41.31Q491.31-41.31 494.40-36.22L494.40-36.22L494.40-36.22Q495.68-34.13 495.68-31.30L495.68-31.30L495.68-31.30Q495.68-26.94 492.04-24.75L492.04-24.75L492.04-24.75Q490.58-23.93 489.35-23.93L489.35-23.93L489.35-23.93Q488.12-23.93 487.35-24.07L487.35-24.07L487.35-24.07Q486.58-24.21 485.30-25.30L485.30-25.30L485.30-25.30Q484.03-26.39 484.03-28.30L484.03-28.30L484.03-28.30Q484.12-29.30 485.58-29.94L485.58-29.94L485.58-29.94Q486.94-30.76 486.94-32.85L486.94-32.85L486.94-32.85Q486.94-36.40 482.57-36.40L482.57-36.40L482.57-36.40Q481.48-36.40 479.98-35.44L479.98-35.44L479.98-35.44Q478.48-34.49 477.48-32.99L477.48-32.99L477.48-32.99Q476.48-31.49 475.61-28.26L475.61-28.26L475.61-28.26Q474.75-25.02 474.75-22.07L474.75-22.07L474.75-22.07Q474.75-19.11 474.97-17.61L474.97-17.61L474.97-17.61Q475.20-16.11 475.98-13.51L475.98-13.51L475.98-13.51Q476.75-10.92 478.89-9.28L478.89-9.28L478.89-9.28Q481.03-7.64 484.21-7.64L484.21-7.64L484.21-7.64Q488.03-7.64 490.94-10.83L490.94-10.83L490.94-10.83Q492.13-12.10 492.86-13.92L492.86-13.92L492.86-13.92Q493.22-14.65 493.77-14.65L493.77-14.65L493.77-14.65Q494.58-14.65 494.99-13.15L494.99-13.15L494.99-13.15Q495.40-11.65 495.40-10.46ZM508.87-23.11L508.87-23.11L508.96-20.84L508.96-20.84Q508.96-20.29 509.69-20.29L509.69-20.29L509.69-20.29Q512.60-20.57 514.79-21.79L514.79-21.79L514.79-21.79Q516.97-23.02 518.06-24.57L518.06-24.57L518.06-24.57Q520.25-27.94 520.43-30.39L520.43-30.39L520.52-31.49L520.52-31.49Q520.52-36.40 516.61-36.40L516.61-36.40L516.61-36.40Q513.69-36.40 511.87-33.85L511.87-33.85L511.87-33.85Q508.87-29.85 508.87-23.11ZM528.71-11.01L528.71-11.01L528.71-11.01Q528.71-7.55 527.30-4.96L527.30-4.96L527.30-4.96Q525.89-2.37 524.11-1.14L524.11-1.14L524.11-1.14Q522.34 0.09 519.97 0.82L519.97 0.82L519.97 0.82Q516.97 1.73 514.24 1.73L514.24 1.73L514.24 1.73Q506.60 1.73 502.96-4.00L502.96-4.00L502.96-4.00Q499.32-9.74 499.32-18.61L499.32-18.61L499.32-18.61Q499.32-27.48 503.82-34.40L503.82-34.40L503.82-34.40Q508.33-41.31 517.33-41.31L517.33-41.31L517.33-41.31Q525.52-41.31 528.44-35.58L528.44-35.58L528.44-35.58Q529.62-33.40 529.62-31.44L529.62-31.44L529.62-31.44Q529.62-29.48 529.44-28.35L529.44-28.35L529.44-28.35Q529.26-27.21 528.16-24.93L528.16-24.93L528.16-24.93Q527.07-22.66 525.25-20.84L525.25-20.84L525.25-20.84Q523.43-19.02 519.52-17.38L519.52-17.38L519.52-17.38Q515.61-15.74 510.33-15.20L510.33-15.20L510.33-15.20Q509.60-15.20 509.60-14.56L509.60-14.56L509.60-14.56Q509.60-13.74 510.19-12.15L510.19-12.15L510.19-12.15Q510.78-10.56 511.51-9.46L511.51-9.46L511.51-9.46Q513.51-6.92 517.43-6.92L517.43-6.92L517.43-6.92Q521.34-6.92 524.07-9.46L524.07-9.46L524.07-9.46Q525.52-10.83 526.43-12.83L526.43-12.83L526.43-12.83Q526.80-13.56 527.39-13.56L527.39-13.56L527.39-13.56Q527.98-13.56 528.35-12.56L528.35-12.56L528.35-12.56Q528.71-11.56 528.71-11.01Z" fill="url(#editing-shiny-gradient2)"></path></g></g><style>text {
  font-size: 64px;
  font-family: Arial Black;
  dominant-baseline: central;
  text-anchor: middle;
}</style></svg>